<?xml version="1.0" encoding="UTF-8" standalone="no"?>
<!DOCTYPE svg PUBLIC "-//W3C//DTD SVG 1.1//EN" "http://www.w3.org/Graphics/SVG/1.1/DTD/svg11.dtd">
<svg xmlns="http://www.w3.org/2000/svg" version="1.1" viewBox="0 0 512 512">
<path fill="#000000" d="
  M 363.86 138.69
  Q 382.78 138.80 402.75 138.75
  Q 409.89 138.73 415.89 140.01
  Q 422.26 141.36 428.01 144.83
  Q 445.38 155.31 447.75 177.00
  Q 448.14 180.53 448.13 187.75
  Q 448.00 310.37 448.00 433.00
  Q 448.00 438.16 447.60 442.37
  Q 447.15 447.17 445.70 451.48
  Q 438.38 473.27 415.00 479.00
  Q 411.01 479.98 403.25 479.98
  Q 255.00 480.00 106.75 479.86
  Q 86.61 479.84 74.31 465.94
  Q 64.00 454.29 64.00 437.00
  Q 64.00 312.75 64.00 188.50
  Q 64.00 180.51 64.33 176.76
  Q 65.00 169.25 68.03 162.60
  Q 70.98 156.15 76.24 150.82
  Q 88.18 138.75 105.75 138.75
  Q 127.00 138.75 148.60 138.75
  A 0.65 0.65 -89.6 0 0 149.25 138.11
  Q 149.95 102.75 170.94 74.44
  Q 183.84 57.04 204.56 45.31
  Q 227.18 32.52 254.01 32.02
  Q 263.88 31.84 273.90 33.64
  Q 314.35 40.91 339.67 72.86
  Q 346.16 81.06 350.55 89.60
  Q 361.53 110.99 362.61 137.49
  A 1.25 1.25 88.8 0 0 363.86 138.69
  Z
  M 299.50 92.26
  Q 280.72 74.69 255.98 74.78
  Q 245.72 74.82 236.30 77.89
  Q 219.84 83.26 208.02 96.76
  Q 192.67 114.28 191.99 137.94
  A 0.79 0.79 -89.3 0 0 192.78 138.75
  L 319.31 138.75
  A 0.69 0.69 89.2 0 0 320.00 138.04
  Q 319.21 110.69 299.50 92.26
  Z
  M 162.26 222.13
  Q 154.42 218.94 151.10 210.86
  Q 149.49 206.95 149.33 199.90
  Q 149.13 191.42 149.27 182.20
  A 0.93 0.91 -89.7 0 0 148.36 181.26
  L 107.24 181.49
  A 0.51 0.49 90.0 0 0 106.75 182.00
  L 106.81 436.69
  A 0.51 0.50 0.0 0 0 107.32 437.19
  L 404.74 437.31
  A 0.51 0.51 0.0 0 0 405.25 436.80
  L 405.25 181.91
  A 0.60 0.59 90.0 0 0 404.66 181.31
  L 363.20 181.31
  A 0.54 0.53 89.5 0 0 362.67 181.86
  Q 362.89 190.84 362.69 199.42
  Q 362.51 207.09 361.00 210.87
  Q 358.66 216.75 353.44 220.19
  Q 345.71 225.27 337.81 223.69
  Q 325.32 221.18 321.47 210.22
  Q 320.00 206.03 320.00 196.61
  Q 320.00 189.29 320.00 181.94
  A 0.69 0.69 0.0 0 0 319.31 181.25
  L 192.95 181.25
  A 0.96 0.95 -0.6 0 0 191.99 182.22
  Q 192.14 191.89 191.90 201.07
  Q 191.75 207.06 190.27 210.69
  Q 186.41 220.14 177.01 222.85
  Q 169.43 225.05 162.26 222.13
  Z"
/>
</svg>
