<?xml version="1.0" encoding="UTF-8" standalone="no"?>
<!DOCTYPE svg PUBLIC "-//W3C//DTD SVG 1.1//EN" "http://www.w3.org/Graphics/SVG/1.1/DTD/svg11.dtd">
<svg xmlns="http://www.w3.org/2000/svg" version="1.1" viewBox="0 0 512 512">
<path fill="#000000" d="
  M 255.34 232.72
  A 0.93 0.93 -44.7 0 0 256.66 232.72
  Q 353.69 135.69 450.69 38.69
  Q 455.07 34.30 458.26 33.05
  Q 463.61 30.96 468.98 32.85
  Q 473.90 34.58 477.05 38.96
  Q 482.75 46.90 477.19 56.94
  Q 476.16 58.79 471.59 63.34
  Q 375.38 159.25 279.31 255.32
  A 0.96 0.96 0.0 0 0 279.31 256.68
  Q 377.81 355.19 476.31 453.69
  Q 477.45 454.83 478.49 457.13
  Q 479.33 458.99 479.65 460.99
  Q 480.86 468.62 476.53 473.84
  Q 472.33 478.89 465.63 479.86
  Q 458.42 480.91 452.75 475.25
  Q 354.64 377.36 256.68 279.31
  A 0.95 0.95 0.0 0 0 255.32 279.31
  Q 157.75 376.87 60.19 474.44
  Q 55.72 478.90 50.16 479.72
  Q 45.23 480.44 40.60 478.15
  Q 35.65 475.71 33.56 470.69
  Q 30.50 463.32 33.81 456.81
  Q 35.37 453.75 38.70 450.57
  Q 41.04 448.33 41.13 448.25
  Q 137.03 352.34 232.72 256.66
  A 0.93 0.93 -45.3 0 0 232.72 255.34
  Q 136.71 159.33 40.96 63.59
  Q 35.71 58.34 34.24 54.97
  Q 31.68 49.12 33.93 43.45
  Q 36.80 36.21 44.09 33.70
  Q 49.58 31.81 55.15 34.31
  Q 58.38 35.76 63.44 40.82
  Q 159.50 136.87 255.34 232.72
  Z"
/>
</svg>
