<?xml version="1.0" encoding="UTF-8" standalone="no"?>
<!DOCTYPE svg PUBLIC "-//W3C//DTD SVG 1.1//EN" "http://www.w3.org/Graphics/SVG/1.1/DTD/svg11.dtd">
<svg xmlns="http://www.w3.org/2000/svg" version="1.1" viewBox="0 0 512 512">
<path fill="#000000" d="
  M 109.41 167.02
  Q 182.21 239.40 255.24 312.61
  A 1.07 1.07 45.2 0 0 256.76 312.62
  Q 330.19 239.19 403.56 165.81
  Q 407.97 161.40 413.20 160.41
  Q 418.42 159.41 423.51 161.99
  Q 429.10 164.82 431.05 170.87
  Q 432.65 175.83 431.18 180.65
  Q 430.15 184.03 427.86 186.77
  Q 427.85 186.78 423.02 191.61
  Q 347.30 267.32 271.59 343.04
  Q 265.26 349.36 261.62 350.86
  Q 255.52 353.36 249.49 350.47
  Q 246.34 348.97 240.61 343.24
  Q 165.44 268.06 90.26 192.88
  Q 83.55 186.17 82.47 184.45
  Q 79.05 179.01 80.54 172.48
  Q 81.67 167.55 84.98 164.41
  Q 88.54 161.03 93.75 160.25
  Q 98.60 159.53 102.69 161.52
  Q 105.02 162.65 109.41 167.02
  Z"
/>
</svg>
