<?xml version="1.0" encoding="UTF-8" standalone="no"?>
<!DOCTYPE svg PUBLIC "-//W3C//DTD SVG 1.1//EN" "http://www.w3.org/Graphics/SVG/1.1/DTD/svg11.dtd">
<svg xmlns="http://www.w3.org/2000/svg" version="1.1" viewBox="0 0 512 512">
<path stroke="#99a6c6" stroke-width="2.00" fill="none" stroke-linecap="butt" vector-effect="non-scaling-stroke" d="
  M 225.19 224.18
  Q 211.39 224.12 197.59 224.46
  Q 195.69 224.51 194.56 225.17
  Q 193.09 226.03 192.20 227.41
  Q 191.26 228.87 191.20 231.80
  Q 191.01 242.04 191.00 265.50
  Q 191.00 269.31 193.21 271.48
  Q 194.78 273.01 197.86 273.30
  Q 200.03 273.50 203.00 273.50
  Q 214.00 273.50 225.23 273.50
  A 0.52 0.52 -0.0 0 1 225.75 274.02
  Q 225.75 324.43 225.75 374.61
  Q 225.75 379.75 225.90 380.36
  Q 226.77 383.96 231.50 383.97
  Q 248.73 384.00 265.95 384.00
  Q 269.15 384.00 270.43 383.28
  Q 272.72 381.99 272.73 378.75
  Q 272.75 327.00 272.75 274.31
  A 0.82 0.81 -89.7 0 1 273.57 273.49
  Q 291.58 273.67 308.79 273.31
  Q 312.30 273.24 313.92 272.03
  Q 316.25 270.29 316.66 266.93
  Q 318.58 251.19 320.37 235.43
  Q 320.38 235.33 320.74 233.08
  Q 321.53 228.06 318.05 225.60
  Q 316.13 224.25 312.13 224.25
  Q 292.69 224.25 273.25 224.25
  A 0.50 0.50 0.0 0 1 272.75 223.75
  Q 272.67 210.61 272.96 197.47
  Q 272.96 197.36 272.94 193.53
  Q 272.92 188.74 274.12 184.08
  Q 275.26 179.61 278.40 176.62
  Q 280.55 174.57 284.16 173.24
  Q 287.62 171.96 290.75 171.75
  Q 297.75 171.28 310.75 171.62
  Q 317.74 171.81 319.17 166.68
  Q 319.50 165.51 319.50 158.28
  Q 319.50 149.64 319.50 141.01
  Q 319.50 134.56 319.41 134.00
  Q 318.69 129.39 314.45 128.29
  Q 313.42 128.02 305.52 127.96
  Q 282.55 127.78 278.00 128.25
  Q 237.48 132.46 227.94 170.33
  Q 226.99 174.10 226.40 178.73
  Q 225.74 183.89 225.75 187.25
  Q 225.80 205.47 225.69 223.68
  A 0.50 0.49 -89.4 0 1 225.19 224.18"
/>
<path fill="#334c8c" d="
  M 249.31 0.00
  L 263.06 0.00
  Q 298.75 1.24 330.50 11.00
  Q 396.68 31.34 443.89 82.23
  Q 450.68 89.55 456.87 97.44
  Q 509.66 164.68 512.00 251.81
  L 512.00 260.56
  Q 511.05 300.07 499.69 334.69
  Q 475.16 409.41 413.05 458.03
  Q 405.10 464.25 396.81 469.70
  Q 335.39 510.10 260.69 512.00
  L 250.19 512.00
  Q 205.33 510.71 165.31 495.44
  Q 103.23 471.74 60.13 420.70
  Q 53.67 413.05 47.87 404.91
  Q 2.70 341.55 0.00 262.44
  L 0.00 250.69
  Q 2.08 174.76 43.69 112.94
  Q 66.29 79.34 99.07 53.81
  Q 106.95 47.67 115.32 42.18
  Q 175.84 2.51 249.31 0.00
  Z
  M 225.19 224.18
  Q 211.39 224.12 197.59 224.46
  Q 195.69 224.51 194.56 225.17
  Q 193.09 226.03 192.20 227.41
  Q 191.26 228.87 191.20 231.80
  Q 191.01 242.04 191.00 265.50
  Q 191.00 269.31 193.21 271.48
  Q 194.78 273.01 197.86 273.30
  Q 200.03 273.50 203.00 273.50
  Q 214.00 273.50 225.23 273.50
  A 0.52 0.52 -0.0 0 1 225.75 274.02
  Q 225.75 324.43 225.75 374.61
  Q 225.75 379.75 225.90 380.36
  Q 226.77 383.96 231.50 383.97
  Q 248.73 384.00 265.95 384.00
  Q 269.15 384.00 270.43 383.28
  Q 272.72 381.99 272.73 378.75
  Q 272.75 327.00 272.75 274.31
  A 0.82 0.81 -89.7 0 1 273.57 273.49
  Q 291.58 273.67 308.79 273.31
  Q 312.30 273.24 313.92 272.03
  Q 316.25 270.29 316.66 266.93
  Q 318.58 251.19 320.37 235.43
  Q 320.38 235.33 320.74 233.08
  Q 321.53 228.06 318.05 225.60
  Q 316.13 224.25 312.13 224.25
  Q 292.69 224.25 273.25 224.25
  A 0.50 0.50 0.0 0 1 272.75 223.75
  Q 272.67 210.61 272.96 197.47
  Q 272.96 197.36 272.94 193.53
  Q 272.92 188.74 274.12 184.08
  Q 275.26 179.61 278.40 176.62
  Q 280.55 174.57 284.16 173.24
  Q 287.62 171.96 290.75 171.75
  Q 297.75 171.28 310.75 171.62
  Q 317.74 171.81 319.17 166.68
  Q 319.50 165.51 319.50 158.28
  Q 319.50 149.64 319.50 141.01
  Q 319.50 134.56 319.41 134.00
  Q 318.69 129.39 314.45 128.29
  Q 313.42 128.02 305.52 127.96
  Q 282.55 127.78 278.00 128.25
  Q 237.48 132.46 227.94 170.33
  Q 226.99 174.10 226.40 178.73
  Q 225.74 183.89 225.75 187.25
  Q 225.80 205.47 225.69 223.68
  A 0.50 0.49 -89.4 0 1 225.19 224.18
  Z"
/>
<path fill="#ffffff" d="
  M 225.69 223.68
  Q 225.80 205.47 225.75 187.25
  Q 225.74 183.89 226.40 178.73
  Q 226.99 174.10 227.94 170.33
  Q 237.48 132.46 278.00 128.25
  Q 282.55 127.78 305.52 127.96
  Q 313.42 128.02 314.45 128.29
  Q 318.69 129.39 319.41 134.00
  Q 319.50 134.56 319.50 141.01
  Q 319.50 149.64 319.50 158.28
  Q 319.50 165.51 319.17 166.68
  Q 317.74 171.81 310.75 171.62
  Q 297.75 171.28 290.75 171.75
  Q 287.62 171.96 284.16 173.24
  Q 280.55 174.57 278.40 176.62
  Q 275.26 179.61 274.12 184.08
  Q 272.92 188.74 272.94 193.53
  Q 272.96 197.36 272.96 197.47
  Q 272.67 210.61 272.75 223.75
  A 0.50 0.50 0.0 0 0 273.25 224.25
  Q 292.69 224.25 312.13 224.25
  Q 316.13 224.25 318.05 225.60
  Q 321.53 228.06 320.74 233.08
  Q 320.38 235.33 320.37 235.43
  Q 318.58 251.19 316.66 266.93
  Q 316.25 270.29 313.92 272.03
  Q 312.30 273.24 308.79 273.31
  Q 291.58 273.67 273.57 273.49
  A 0.82 0.81 -89.7 0 0 272.75 274.31
  Q 272.75 327.00 272.73 378.75
  Q 272.72 381.99 270.43 383.28
  Q 269.15 384.00 265.95 384.00
  Q 248.73 384.00 231.50 383.97
  Q 226.77 383.96 225.90 380.36
  Q 225.75 379.75 225.75 374.61
  Q 225.75 324.43 225.75 274.02
  A 0.52 0.52 0.0 0 0 225.23 273.50
  Q 214.00 273.50 203.00 273.50
  Q 200.03 273.50 197.86 273.30
  Q 194.78 273.01 193.21 271.48
  Q 191.00 269.31 191.00 265.50
  Q 191.01 242.04 191.20 231.80
  Q 191.26 228.87 192.20 227.41
  Q 193.09 226.03 194.56 225.17
  Q 195.69 224.51 197.59 224.46
  Q 211.39 224.12 225.19 224.18
  A 0.50 0.49 -89.4 0 0 225.69 223.68
  Z"
/>
</svg>
