<?xml version="1.0" encoding="UTF-8" standalone="no"?>
<!DOCTYPE svg PUBLIC "-//W3C//DTD SVG 1.1//EN" "http://www.w3.org/Graphics/SVG/1.1/DTD/svg11.dtd">
<svg xmlns="http://www.w3.org/2000/svg" version="1.1" viewBox="0 0 512 512">
<g stroke-width="2.00" fill="none" stroke-linecap="butt">
<path stroke="#7524bf" vector-effect="non-scaling-stroke" d="
  M 399.25 43.96
  Q 398.79 44.64 398.37 44.39
  Q 398.10 44.22 398.13 44.51
  L 398.17 44.96
  A 1.40 0.95 -1.9 0 1 396.74 46.00
  Q 255.53 46.00 116.79 46.00
  Q 116.67 46.00 114.27 46.37
  Q 112.36 46.66 111.50 44.79"
/>
<path stroke="#8022b5" vector-effect="non-scaling-stroke" d="
  M 424.57 63.45
  Q 423.36 63.79 422.36 64.66
  A 1.40 1.21 -62.4 0 1 421.50 65.00
  Q 408.34 65.06 395.18 64.67
  Q 382.94 64.31 375.20 64.30
  Q 257.66 64.23 140.12 64.31
  Q 138.01 64.31 134.27 64.70
  Q 131.33 65.00 128.38 64.97
  Q 120.17 64.87 120.11 64.87
  Q 104.31 65.28 88.50 65.00
  Q 87.23 64.98 87.00 63.96"
/>
<path stroke="#8a21ab" vector-effect="non-scaling-stroke" d="
  M 448.50 87.46
  L 446.44 86.48
  Q 446.05 86.29 446.10 86.73
  Q 446.25 87.99 444.75 88.00
  Q 345.07 88.47 145.75 88.25
  Q 82.53 88.18 67.19 87.95
  Q 66.42 87.94 65.99 87.73
  Q 64.86 87.21 65.81 86.26
  A 0.47 0.36 -50.5 0 0 65.84 85.59
  Q 65.60 85.46 65.25 85.46"
/>
<path stroke="#971f9e" vector-effect="non-scaling-stroke" d="
  M 465.54 109.08
  Q 443.13 109.05 420.81 109.02
  Q 267.28 108.87 113.75 109.13
  Q 100.78 109.15 87.81 109.56
  Q 86.28 109.61 83.75 109.50
  Q 67.52 108.78 51.28 108.99
  Q 51.16 108.99 49.76 108.84
  Q 48.83 108.74 47.99 109.18
  Q 47.66 109.35 47.71 108.97
  Q 47.80 108.38 47.29 108.00"
/>
<path stroke="#a71d8f" vector-effect="non-scaling-stroke" d="
  M 488.04 148.25
  Q 489.12 153.08 487.23 149.45
  A 0.82 0.81 -14.0 0 0 486.49 149.01
  Q 468.22 149.28 449.94 149.22
  Q 411.00 149.11 372.06 149.19
  Q 366.16 149.20 363.80 149.49
  A 0.51 0.43 -11.5 0 0 363.35 150.06
  L 364.25 153.04"
/>
<path stroke="#cf8fcb" vector-effect="non-scaling-stroke" d="
  M 364.25 153.04
  Q 343.07 130.68 313.24 128.26
  Q 310.06 128.00 293.25 128.00
  Q 254.50 128.00 215.75 128.00
  Q 201.44 128.00 195.77 128.68
  Q 158.66 133.14 138.25 166.04"
/>
<path stroke="#b01e86" vector-effect="non-scaling-stroke" d="
  M 138.25 166.04
  Q 134.81 166.16 131.39 165.88
  Q 126.96 165.51 124.58 165.54
  Q 102.91 165.82 81.25 165.99
  Q 70.74 166.07 60.24 165.67
  Q 49.86 165.27 42.76 165.47
  Q 34.00 165.71 25.25 166.04
  Q 21.89 166.17 18.57 165.75
  A 0.49 0.47 -83.0 0 1 18.16 165.20
  Q 18.36 163.72 16.96 164.50"
/>
<path stroke="#d78dc3" vector-effect="non-scaling-stroke" d="
  M 364.25 153.04
  Q 374.07 164.42 379.43 178.11"
/>
<path stroke="#e18eb9" vector-effect="non-scaling-stroke" d="
  M 379.43 178.11
  Q 384.01 191.73 384.00 205.75
  Q 383.97 230.75 384.04 255.75"
/>
<path stroke="#e29ab0" vector-effect="non-scaling-stroke" d="
  M 384.04 255.75
  Q 383.92 296.29 384.00 305.50
  Q 384.26 335.96 364.44 358.66"
/>
<path stroke="#e3a4a7" vector-effect="non-scaling-stroke" d="
  M 364.44 358.66
  Q 340.86 384.00 305.00 384.00
  Q 255.12 384.00 205.25 383.99
  Q 184.52 383.98 166.50 373.96"
/>
<path stroke="#e3a1aa" vector-effect="non-scaling-stroke" d="
  M 166.50 373.96
  Q 143.42 360.12 133.23 335.74"
/>
<path stroke="#e298b1" vector-effect="non-scaling-stroke" d="
  M 133.23 335.74
  Q 127.98 321.20 128.00 303.50
  Q 128.03 280.50 127.96 257.50"
/>
<path stroke="#e08eba" vector-effect="non-scaling-stroke" d="
  M 127.96 257.50
  Q 128.02 237.75 128.01 218.01
  Q 128.00 201.26 128.29 198.02
  Q 129.80 181.14 138.25 166.04"
/>
<path stroke="#e18eb9" vector-effect="non-scaling-stroke" d="
  M 156.50 187.61
  Q 153.81 196.19 153.75 204.00
  Q 153.67 213.72 153.79 255.25"
/>
<path stroke="#e29baf" vector-effect="non-scaling-stroke" d="
  M 153.79 255.25
  Q 153.72 280.25 153.75 305.25
  Q 153.77 325.16 164.92 339.22
  Q 171.24 347.19 180.12 351.97
  Q 191.77 358.25 206.00 358.25
  Q 256.12 358.25 306.25 358.25
  Q 325.38 358.25 339.24 347.11
  Q 347.23 340.70 351.98 331.88
  Q 358.24 320.27 358.25 306.00
  Q 358.28 272.62 358.21 239.25"
/>
<path stroke="#e18eb9" vector-effect="non-scaling-stroke" d="
  M 358.21 239.25
  Q 358.58 218.25 357.82 197.24"
/>
<path stroke="#d98dc1" vector-effect="non-scaling-stroke" d="
  M 357.82 197.24
  Q 354.51 177.94 340.58 166.05
  Q 333.18 159.74 324.34 156.73
  Q 315.61 153.75 305.50 153.75
  Q 256.50 153.75 207.50 153.76
  Q 170.41 153.77 156.50 187.61"
/>
<path stroke="#bb1c7b" vector-effect="non-scaling-stroke" d="
  M 357.82 197.24
  Q 356.95 198.48 355.89 198.15
  Q 355.21 197.93 354.94 197.94
  L 340.06 198.17
  A 1.16 1.04 65.6 0 1 339.24 197.81
  Q 338.51 197.06 337.46 196.75"
/>
<path stroke="#d98dc1" vector-effect="non-scaling-stroke" d="
  M 337.46 196.75
  Q 341.03 187.77 336.19 180.81
  Q 329.72 171.51 319.24 173.95
  Q 314.60 175.02 311.52 177.90
  Q 308.22 180.97 306.75 185.54"
/>
<path stroke="#bb1c7b" vector-effect="non-scaling-stroke" d="
  M 306.75 185.54
  Q 306.39 185.58 306.14 185.43
  A 0.45 0.42 35.1 0 0 305.58 185.51
  Q 305.18 186.00 304.25 186.00
  Q 271.77 185.89 159.06 186.06
  A 0.64 0.54 -82.8 0 0 158.51 186.56
  Q 158.24 187.86 156.50 187.61"
/>
<path stroke="#e18eb9" vector-effect="non-scaling-stroke" d="
  M 337.46 196.75
  Q 332.00 206.15 322.72 205.97
  Q 315.06 205.82 310.25 200.40
  Q 305.15 194.66 306.75 185.54"
/>
<path stroke="#c42a69" vector-effect="non-scaling-stroke" d="
  M 358.21 239.25
  Q 357.92 240.39 357.11 241.03
  A 1.55 1.13 20.3 0 1 356.19 241.29
  Q 339.13 240.57 322.07 241.29
  A 0.63 0.51 -85.7 0 0 321.57 241.82
  Q 321.48 242.38 320.79 242.25"
/>
<path stroke="#e18eb9" vector-effect="non-scaling-stroke" d="
  M 320.79 242.25
  Q 316.61 223.95 304.19 210.81
  Q 288.66 194.38 266.88 190.78
  Q 256.88 189.12 246.96 190.45
  Q 232.35 192.40 220.31 200.31
  Q 191.32 219.37 189.71 255.25"
/>
<path stroke="#c42a69" vector-effect="non-scaling-stroke" d="
  M 189.71 255.25
  Q 188.92 255.61 189.55 253.02
  A 0.83 0.81 -83.3 0 0 188.76 252.00
  L 155.99 252.25
  A 1.23 1.21 86.2 0 0 154.80 253.63
  Q 154.93 254.69 153.79 255.25"
/>
<path stroke="#e29baf" vector-effect="non-scaling-stroke" d="
  M 320.79 242.25
  Q 326.31 274.50 307.03 297.90
  Q 300.60 305.69 292.24 311.24
  Q 272.13 324.58 247.82 321.59
  Q 237.60 320.33 228.64 316.28
  Q 214.29 309.80 204.44 297.56
  Q 189.88 279.47 189.71 255.25"
/>
<path stroke="#b91c7d" vector-effect="non-scaling-stroke" d="
  M 499.97 178.33
  Q 439.69 177.41 379.43 178.11"
/>
<path stroke="#c3276b" vector-effect="non-scaling-stroke" d="
  M 127.96 257.50
  L 127.24 252.21
  Q 127.21 251.96 126.98 252.15
  Q 126.76 252.32 126.44 252.06
  Q 64.94 251.94 3.40 252.06
  A 1.14 1.14 84.0 0 0 2.29 253.44
  Q 2.55 254.72 1.91 255.06
  A 1.01 0.74 -15.5 0 0 1.42 255.68
  L 0.23 262.76"
/>
<path stroke="#c42969" vector-effect="non-scaling-stroke" d="
  M 511.72 247.74
  L 511.42 257.93
  Q 511.41 258.03 511.39 257.94
  L 510.02 252.64
  A 0.76 0.61 -5.7 0 0 509.31 252.18
  L 385.46 252.19
  A 0.73 0.72 -87.9 0 0 384.74 252.87
  L 384.47 256.69
  Q 384.44 257.13 384.32 256.70
  L 384.04 255.75"
/>
<path stroke="#e193b5" vector-effect="non-scaling-stroke" d="
  M 296.34 255.99
  A 40.34 40.34 0.0 0 0 256.00 215.65
  A 40.34 40.34 0.0 0 0 215.66 255.99
  A 40.34 40.34 0.0 0 0 256.00 296.33
  A 40.34 40.34 0.0 0 0 296.34 255.99"
/>
<path stroke="#c63f58" vector-effect="non-scaling-stroke" d="
  M 489.89 360.09
  Q 490.92 355.82 489.24 358.82
  A 0.87 0.85 -74.7 0 1 488.50 359.25
  Q 429.65 359.30 370.79 359.19
  Q 370.69 359.19 368.12 359.48
  Q 366.20 359.69 364.44 358.66"
/>
<path stroke="#c53a5c" vector-effect="non-scaling-stroke" d="
  M 133.23 335.74
  Q 57.32 336.33 16.25 336.00
  Q 15.08 335.99 14.45 336.37
  A 1.22 0.39 13.4 0 1 13.66 336.43
  Q 13.25 336.38 13.46 337.75"
/>
<path stroke="#c74652" vector-effect="non-scaling-stroke" d="
  M 166.50 373.96
  L 164.48 374.78
  Q 163.78 375.07 163.57 375.07
  Q 110.45 375.49 57.32 375.11
  Q 57.19 375.10 46.31 375.32
  Q 37.60 375.49 28.88 374.19"
/>
<path stroke="#c94f4d" vector-effect="non-scaling-stroke" d="
  M 468.54 398.50
  L 468.88 396.48
  A 0.41 0.38 -86.1 0 0 468.50 396.01
  Q 463.16 396.10 457.83 395.96
  Q 451.40 395.78 447.17 395.84
  Q 425.60 396.17 404.03 395.62
  Q 402.41 395.58 399.85 395.79
  Q 397.75 395.97 395.64 395.93
  Q 389.68 395.82 389.35 395.82
  Q 380.14 396.01 370.94 395.92
  Q 359.07 395.79 352.56 395.87
  Q 315.35 396.28 283.00 395.75
  Q 252.38 395.24 224.51 395.77
  Q 212.66 396.00 204.50 396.00
  Q 189.34 396.00 174.18 396.00
  Q 173.56 396.00 170.92 395.40
  Q 169.19 395.01 167.45 395.78
  A 1.27 1.20 -46.6 0 1 166.53 395.83
  Q 163.32 394.72 160.11 395.56
  Q 158.50 395.98 157.32 395.80
  Q 155.91 395.60 154.50 395.34
  Q 154.03 395.26 153.53 395.42
  Q 150.61 396.35 146.56 395.50
  Q 145.72 395.33 144.89 395.53
  Q 142.39 396.15 140.44 395.96
  Q 140.19 395.94 138.58 395.30
  Q 137.51 394.87 136.42 395.48
  Q 135.93 395.75 135.49 395.76
  Q 108.40 396.19 81.31 395.97
  Q 75.81 395.93 70.31 395.98
  Q 69.25 395.99 66.72 395.71
  Q 64.90 395.50 63.07 395.69
  Q 61.26 395.88 59.81 395.68
  Q 57.69 395.38 56.50 395.50
  Q 50.48 396.08 44.43 396.06
  A 1.24 0.94 15.5 0 0 43.57 396.40
  Q 43.07 396.98 43.00 397.79"
/>
<path stroke="#cd5d4a" vector-effect="non-scaling-stroke" d="
  M 450.73 421.98
  Q 449.61 420.75 447.25 420.75
  Q 254.90 420.70 62.56 420.81
  A 1.32 0.81 -58.3 0 0 61.76 421.21
  Q 61.23 421.75 60.85 420.78
  A 0.42 0.22 67.2 0 0 60.47 420.46
  Q 60.35 420.54 60.25 420.79"
/>
<path stroke="#d16b47" vector-effect="non-scaling-stroke" d="
  M 430.79 442.75
  Q 431.34 441.32 430.31 441.31
  Q 363.16 441.17 83.25 441.19
  Q 81.51 441.19 79.99 440.52
  A 0.35 0.32 14.5 0 0 79.50 440.78
  L 79.46 441.25"
/>
<path stroke="#d57844" vector-effect="non-scaling-stroke" d="
  M 413.04 458.00
  Q 409.66 457.00 407.25 457.00
  Q 256.39 457.24 105.53 457.07
  Q 103.72 457.06 102.12 457.27
  Q 100.41 457.49 98.71 457.75"
/>
<path stroke="#da8841" vector-effect="non-scaling-stroke" d="
  M 367.50 486.46
  Q 367.92 485.70 367.85 485.39
  A 1.01 0.09 19.8 0 0 366.98 484.99
  Q 365.57 484.49 363.00 484.50
  Q 300.21 484.77 144.56 484.31
  A 0.76 0.63 7.1 0 0 143.86 484.76
  Q 143.63 485.47 144.00 486.21"
/>
</g>
<path fill="#7024c4" d="
  M 249.31 0.00
  L 262.81 0.00
  Q 337.57 2.43 399.25 43.96
  Q 398.79 44.64 398.37 44.39
  Q 398.10 44.22 398.13 44.51
  L 398.17 44.96
  A 1.40 0.95 -1.9 0 1 396.74 46.00
  Q 255.53 46.00 116.79 46.00
  Q 116.67 46.00 114.27 46.37
  Q 112.36 46.66 111.50 44.79
  Q 173.69 2.50 249.31 0.00
  Z"
/>
<path fill="#7a23ba" d="
  M 399.25 43.96
  Q 412.59 52.85 424.57 63.45
  Q 423.36 63.79 422.36 64.66
  A 1.40 1.21 -62.4 0 1 421.50 65.00
  Q 408.34 65.06 395.18 64.67
  Q 382.94 64.31 375.20 64.30
  Q 257.66 64.23 140.12 64.31
  Q 138.01 64.31 134.27 64.70
  Q 131.33 65.00 128.38 64.97
  Q 120.17 64.87 120.11 64.87
  Q 104.31 65.28 88.50 65.00
  Q 87.23 64.98 87.00 63.96
  Q 98.58 53.52 111.50 44.79
  Q 112.36 46.66 114.27 46.37
  Q 116.67 46.00 116.79 46.00
  Q 255.53 46.00 396.74 46.00
  A 1.40 0.95 -1.9 0 0 398.17 44.96
  L 398.13 44.51
  Q 398.10 44.22 398.37 44.39
  Q 398.79 44.64 399.25 43.96
  Z"
/>
<path fill="#8521b0" d="
  M 424.57 63.45
  Q 437.40 74.61 448.50 87.46
  L 446.44 86.48
  Q 446.05 86.29 446.10 86.73
  Q 446.25 87.99 444.75 88.00
  Q 345.07 88.47 145.75 88.25
  Q 82.53 88.18 67.19 87.95
  Q 66.42 87.94 65.99 87.73
  Q 64.86 87.21 65.81 86.26
  A 0.47 0.36 -50.5 0 0 65.84 85.59
  Q 65.60 85.46 65.25 85.46
  Q 75.36 73.93 87.00 63.96
  Q 87.23 64.98 88.50 65.00
  Q 104.31 65.28 120.11 64.87
  Q 120.17 64.87 128.38 64.97
  Q 131.33 65.00 134.27 64.70
  Q 138.01 64.31 140.12 64.31
  Q 257.66 64.23 375.20 64.30
  Q 382.94 64.31 395.18 64.67
  Q 408.34 65.06 421.50 65.00
  A 1.40 1.21 -62.4 0 0 422.36 64.66
  Q 423.36 63.79 424.57 63.45
  Z"
/>
<path fill="#8f20a5" d="
  M 65.25 85.46
  Q 65.60 85.46 65.84 85.59
  A 0.47 0.36 -50.5 0 1 65.81 86.26
  Q 64.86 87.21 65.99 87.73
  Q 66.42 87.94 67.19 87.95
  Q 82.53 88.18 145.75 88.25
  Q 345.07 88.47 444.75 88.00
  Q 446.25 87.99 446.10 86.73
  Q 446.05 86.29 446.44 86.48
  L 448.50 87.46
  Q 457.74 97.83 465.54 109.08
  Q 443.13 109.05 420.81 109.02
  Q 267.28 108.87 113.75 109.13
  Q 100.78 109.15 87.81 109.56
  Q 86.28 109.61 83.75 109.50
  Q 67.52 108.78 51.28 108.99
  Q 51.16 108.99 49.76 108.84
  Q 48.83 108.74 47.99 109.18
  Q 47.66 109.35 47.71 108.97
  Q 47.80 108.38 47.29 108.00
  Q 55.55 96.15 65.25 85.46
  Z"
/>
<path fill="#9f1e97" d="
  M 47.29 108.00
  Q 47.80 108.38 47.71 108.97
  Q 47.66 109.35 47.99 109.18
  Q 48.83 108.74 49.76 108.84
  Q 51.16 108.99 51.28 108.99
  Q 67.52 108.78 83.75 109.50
  Q 86.28 109.61 87.81 109.56
  Q 100.78 109.15 113.75 109.13
  Q 267.28 108.87 420.81 109.02
  Q 443.13 109.05 465.54 109.08
  Q 478.83 127.62 488.04 148.25
  Q 489.12 153.08 487.23 149.45
  A 0.82 0.81 -14.0 0 0 486.49 149.01
  Q 468.22 149.28 449.94 149.22
  Q 411.00 149.11 372.06 149.19
  Q 366.16 149.20 363.80 149.49
  A 0.51 0.43 -11.5 0 0 363.35 150.06
  L 364.25 153.04
  Q 343.07 130.68 313.24 128.26
  Q 310.06 128.00 293.25 128.00
  Q 254.50 128.00 215.75 128.00
  Q 201.44 128.00 195.77 128.68
  Q 158.66 133.14 138.25 166.04
  Q 134.81 166.16 131.39 165.88
  Q 126.96 165.51 124.58 165.54
  Q 102.91 165.82 81.25 165.99
  Q 70.74 166.07 60.24 165.67
  Q 49.86 165.27 42.76 165.47
  Q 34.00 165.71 25.25 166.04
  Q 21.89 166.17 18.57 165.75
  A 0.49 0.47 -83.0 0 1 18.16 165.20
  Q 18.36 163.72 16.96 164.50
  Q 28.38 134.23 47.29 108.00
  Z"
/>
<path fill="#ffffff" d="
  M 364.25 153.04
  Q 374.07 164.42 379.43 178.11
  Q 384.01 191.73 384.00 205.75
  Q 383.97 230.75 384.04 255.75
  Q 383.92 296.29 384.00 305.50
  Q 384.26 335.96 364.44 358.66
  Q 340.86 384.00 305.00 384.00
  Q 255.12 384.00 205.25 383.99
  Q 184.52 383.98 166.50 373.96
  Q 143.42 360.12 133.23 335.74
  Q 127.98 321.20 128.00 303.50
  Q 128.03 280.50 127.96 257.50
  Q 128.02 237.75 128.01 218.01
  Q 128.00 201.26 128.29 198.02
  Q 129.80 181.14 138.25 166.04
  Q 158.66 133.14 195.77 128.68
  Q 201.44 128.00 215.75 128.00
  Q 254.50 128.00 293.25 128.00
  Q 310.06 128.00 313.24 128.26
  Q 343.07 130.68 364.25 153.04
  Z
  M 156.50 187.61
  Q 153.81 196.19 153.75 204.00
  Q 153.67 213.72 153.79 255.25
  Q 153.72 280.25 153.75 305.25
  Q 153.77 325.16 164.92 339.22
  Q 171.24 347.19 180.12 351.97
  Q 191.77 358.25 206.00 358.25
  Q 256.12 358.25 306.25 358.25
  Q 325.38 358.25 339.24 347.11
  Q 347.23 340.70 351.98 331.88
  Q 358.24 320.27 358.25 306.00
  Q 358.28 272.62 358.21 239.25
  Q 358.58 218.25 357.82 197.24
  Q 354.51 177.94 340.58 166.05
  Q 333.18 159.74 324.34 156.73
  Q 315.61 153.75 305.50 153.75
  Q 256.50 153.75 207.50 153.76
  Q 170.41 153.77 156.50 187.61
  Z"
/>
<path fill="#af1b87" d="
  M 488.04 148.25
  Q 495.18 163.03 499.97 178.33
  Q 439.69 177.41 379.43 178.11
  Q 374.07 164.42 364.25 153.04
  L 363.35 150.06
  A 0.51 0.43 -11.5 0 1 363.80 149.49
  Q 366.16 149.20 372.06 149.19
  Q 411.00 149.11 449.94 149.22
  Q 468.22 149.28 486.49 149.01
  A 0.82 0.81 -14.0 0 1 487.23 149.45
  Q 489.12 153.08 488.04 148.25
  Z"
/>
<path fill="#b31b83" d="
  M 357.82 197.24
  Q 356.95 198.48 355.89 198.15
  Q 355.21 197.93 354.94 197.94
  L 340.06 198.17
  A 1.16 1.04 65.6 0 1 339.24 197.81
  Q 338.51 197.06 337.46 196.75
  Q 341.03 187.77 336.19 180.81
  Q 329.72 171.51 319.24 173.95
  Q 314.60 175.02 311.52 177.90
  Q 308.22 180.97 306.75 185.54
  Q 306.39 185.58 306.14 185.43
  A 0.45 0.42 35.1 0 0 305.58 185.51
  Q 305.18 186.00 304.25 186.00
  Q 271.77 185.89 159.06 186.06
  A 0.64 0.54 -82.8 0 0 158.51 186.56
  Q 158.24 187.86 156.50 187.61
  Q 170.41 153.77 207.50 153.76
  Q 256.50 153.75 305.50 153.75
  Q 315.61 153.75 324.34 156.73
  Q 333.18 159.74 340.58 166.05
  Q 354.51 177.94 357.82 197.24
  Z"
/>
<path fill="#c11d74" d="
  M 138.25 166.04
  Q 129.80 181.14 128.29 198.02
  Q 128.00 201.26 128.01 218.01
  Q 128.02 237.75 127.96 257.50
  L 127.24 252.21
  Q 127.21 251.96 126.98 252.15
  Q 126.76 252.32 126.44 252.06
  Q 64.94 251.94 3.40 252.06
  A 1.14 1.14 84.0 0 0 2.29 253.44
  Q 2.55 254.72 1.91 255.06
  A 1.01 0.74 -15.5 0 0 1.42 255.68
  L 0.23 262.76
  Q 0.42 262.06 0.00 261.69
  L 0.00 250.44
  Q 1.10 205.97 16.96 164.50
  Q 18.36 163.72 18.16 165.20
  A 0.49 0.47 -83.0 0 0 18.57 165.75
  Q 21.89 166.17 25.25 166.04
  Q 34.00 165.71 42.76 165.47
  Q 49.86 165.27 60.24 165.67
  Q 70.74 166.07 81.25 165.99
  Q 102.91 165.82 124.58 165.54
  Q 126.96 165.51 131.39 165.88
  Q 134.81 166.16 138.25 166.04
  Z"
/>
<path fill="#ffffff" d="
  M 337.46 196.75
  Q 332.00 206.15 322.72 205.97
  Q 315.06 205.82 310.25 200.40
  Q 305.15 194.66 306.75 185.54
  Q 308.22 180.97 311.52 177.90
  Q 314.60 175.02 319.24 173.95
  Q 329.72 171.51 336.19 180.81
  Q 341.03 187.77 337.46 196.75
  Z"
/>
<path fill="#c21d72" d="
  M 499.97 178.33
  Q 510.77 212.41 511.72 247.74
  L 511.42 257.93
  Q 511.41 258.03 511.39 257.94
  L 510.02 252.64
  A 0.76 0.61 -5.7 0 0 509.31 252.18
  L 385.46 252.19
  A 0.73 0.72 -87.9 0 0 384.74 252.87
  L 384.47 256.69
  Q 384.44 257.13 384.32 256.70
  L 384.04 255.75
  Q 383.97 230.75 384.00 205.75
  Q 384.01 191.73 379.43 178.11
  Q 439.69 177.41 499.97 178.33
  Z"
/>
<path fill="#c21d73" d="
  M 306.75 185.54
  Q 305.15 194.66 310.25 200.40
  Q 315.06 205.82 322.72 205.97
  Q 332.00 206.15 337.46 196.75
  Q 338.51 197.06 339.24 197.81
  A 1.16 1.04 65.6 0 0 340.06 198.17
  L 354.94 197.94
  Q 355.21 197.93 355.89 198.15
  Q 356.95 198.48 357.82 197.24
  Q 358.58 218.25 358.21 239.25
  Q 357.92 240.39 357.11 241.03
  A 1.55 1.13 20.3 0 1 356.19 241.29
  Q 339.13 240.57 322.07 241.29
  A 0.63 0.51 -85.7 0 0 321.57 241.82
  Q 321.48 242.38 320.79 242.25
  Q 316.61 223.95 304.19 210.81
  Q 288.66 194.38 266.88 190.78
  Q 256.88 189.12 246.96 190.45
  Q 232.35 192.40 220.31 200.31
  Q 191.32 219.37 189.71 255.25
  Q 188.92 255.61 189.55 253.02
  A 0.83 0.81 -83.3 0 0 188.76 252.00
  L 155.99 252.25
  A 1.23 1.21 86.2 0 0 154.80 253.63
  Q 154.93 254.69 153.79 255.25
  Q 153.67 213.72 153.75 204.00
  Q 153.81 196.19 156.50 187.61
  Q 158.24 187.86 158.51 186.56
  A 0.64 0.54 -82.8 0 1 159.06 186.06
  Q 271.77 185.89 304.25 186.00
  Q 305.18 186.00 305.58 185.51
  A 0.45 0.42 35.1 0 1 306.14 185.43
  Q 306.39 185.58 306.75 185.54
  Z"
/>
<path fill="#ffffff" d="
  M 320.79 242.25
  Q 326.31 274.50 307.03 297.90
  Q 300.60 305.69 292.24 311.24
  Q 272.13 324.58 247.82 321.59
  Q 237.60 320.33 228.64 316.28
  Q 214.29 309.80 204.44 297.56
  Q 189.88 279.47 189.71 255.25
  Q 191.32 219.37 220.31 200.31
  Q 232.35 192.40 246.96 190.45
  Q 256.88 189.12 266.88 190.78
  Q 288.66 194.38 304.19 210.81
  Q 316.61 223.95 320.79 242.25
  Z
  M 296.34 255.99
  A 40.34 40.34 0.0 0 0 256.00 215.65
  A 40.34 40.34 0.0 0 0 215.66 255.99
  A 40.34 40.34 0.0 0 0 256.00 296.33
  A 40.34 40.34 0.0 0 0 296.34 255.99
  Z"
/>
<circle fill="#c3276a" cx="256.00" cy="255.99" r="40.34"/>
<path fill="#c5375e" d="
  M 358.21 239.25
  Q 358.28 272.62 358.25 306.00
  Q 358.24 320.27 351.98 331.88
  Q 347.23 340.70 339.24 347.11
  Q 325.38 358.25 306.25 358.25
  Q 256.12 358.25 206.00 358.25
  Q 191.77 358.25 180.12 351.97
  Q 171.24 347.19 164.92 339.22
  Q 153.77 325.16 153.75 305.25
  Q 153.72 280.25 153.79 255.25
  Q 154.93 254.69 154.80 253.63
  A 1.23 1.21 86.2 0 1 155.99 252.25
  L 188.76 252.00
  A 0.83 0.81 -83.3 0 1 189.55 253.02
  Q 188.92 255.61 189.71 255.25
  Q 189.88 279.47 204.44 297.56
  Q 214.29 309.80 228.64 316.28
  Q 237.60 320.33 247.82 321.59
  Q 272.13 324.58 292.24 311.24
  Q 300.60 305.69 307.03 297.90
  Q 326.31 274.50 320.79 242.25
  Q 321.48 242.38 321.57 241.82
  A 0.63 0.51 -85.7 0 1 322.07 241.29
  Q 339.13 240.57 356.19 241.29
  A 1.55 1.13 20.3 0 0 357.11 241.03
  Q 357.92 240.39 358.21 239.25
  Z"
/>
<path fill="#c53460" d="
  M 511.72 247.74
  L 512.00 251.31
  L 512.00 261.56
  Q 510.63 313.08 489.89 360.09
  Q 490.92 355.82 489.24 358.82
  A 0.87 0.85 -74.7 0 1 488.50 359.25
  Q 429.65 359.30 370.79 359.19
  Q 370.69 359.19 368.12 359.48
  Q 366.20 359.69 364.44 358.66
  Q 384.26 335.96 384.00 305.50
  Q 383.92 296.29 384.04 255.75
  L 384.32 256.70
  Q 384.44 257.13 384.47 256.69
  L 384.74 252.87
  A 0.73 0.72 -87.9 0 1 385.46 252.19
  L 509.31 252.18
  A 0.76 0.61 -5.7 0 1 510.02 252.64
  L 511.39 257.94
  Q 511.41 258.03 511.42 257.93
  L 511.72 247.74
  Z"
/>
<path fill="#c43162" d="
  M 127.96 257.50
  Q 128.03 280.50 128.00 303.50
  Q 127.98 321.20 133.23 335.74
  Q 57.32 336.33 16.25 336.00
  Q 15.08 335.99 14.45 336.37
  A 1.22 0.39 13.4 0 1 13.66 336.43
  Q 13.25 336.38 13.46 337.75
  Q 1.01 301.30 0.23 262.76
  L 1.42 255.68
  A 1.01 0.74 -15.5 0 1 1.91 255.06
  Q 2.55 254.72 2.29 253.44
  A 1.14 1.14 84.0 0 1 3.40 252.06
  Q 64.94 251.94 126.44 252.06
  Q 126.76 252.32 126.98 252.15
  Q 127.21 251.96 127.24 252.21
  L 127.96 257.50
  Z"
/>
<path fill="#c64255" d="
  M 133.23 335.74
  Q 143.42 360.12 166.50 373.96
  L 164.48 374.78
  Q 163.78 375.07 163.57 375.07
  Q 110.45 375.49 57.32 375.11
  Q 57.19 375.10 46.31 375.32
  Q 37.60 375.49 28.88 374.19
  Q 19.63 356.43 13.46 337.75
  Q 13.25 336.38 13.66 336.43
  A 1.22 0.39 13.4 0 0 14.45 336.37
  Q 15.08 335.99 16.25 336.00
  Q 57.32 336.33 133.23 335.74
  Z"
/>
<path fill="#c7494f" d="
  M 489.89 360.09
  Q 480.89 380.24 468.54 398.50
  L 468.88 396.48
  A 0.41 0.38 -86.1 0 0 468.50 396.01
  Q 463.16 396.10 457.83 395.96
  Q 451.40 395.78 447.17 395.84
  Q 425.60 396.17 404.03 395.62
  Q 402.41 395.58 399.85 395.79
  Q 397.75 395.97 395.64 395.93
  Q 389.68 395.82 389.35 395.82
  Q 380.14 396.01 370.94 395.92
  Q 359.07 395.79 352.56 395.87
  Q 315.35 396.28 283.00 395.75
  Q 252.38 395.24 224.51 395.77
  Q 212.66 396.00 204.50 396.00
  Q 189.34 396.00 174.18 396.00
  Q 173.56 396.00 170.92 395.40
  Q 169.19 395.01 167.45 395.78
  A 1.27 1.20 -46.6 0 1 166.53 395.83
  Q 163.32 394.72 160.11 395.56
  Q 158.50 395.98 157.32 395.80
  Q 155.91 395.60 154.50 395.34
  Q 154.03 395.26 153.53 395.42
  Q 150.61 396.35 146.56 395.50
  Q 145.72 395.33 144.89 395.53
  Q 142.39 396.15 140.44 395.96
  Q 140.19 395.94 138.58 395.30
  Q 137.51 394.87 136.42 395.48
  Q 135.93 395.75 135.49 395.76
  Q 108.40 396.19 81.31 395.97
  Q 75.81 395.93 70.31 395.98
  Q 69.25 395.99 66.72 395.71
  Q 64.90 395.50 63.07 395.69
  Q 61.26 395.88 59.81 395.68
  Q 57.69 395.38 56.50 395.50
  Q 50.48 396.08 44.43 396.06
  A 1.24 0.94 15.5 0 0 43.57 396.40
  Q 43.07 396.98 43.00 397.79
  Q 35.25 386.21 28.88 374.19
  Q 37.60 375.49 46.31 375.32
  Q 57.19 375.10 57.32 375.11
  Q 110.45 375.49 163.57 375.07
  Q 163.78 375.07 164.48 374.78
  L 166.50 373.96
  Q 184.52 383.98 205.25 383.99
  Q 255.12 384.00 305.00 384.00
  Q 340.86 384.00 364.44 358.66
  Q 366.20 359.69 368.12 359.48
  Q 370.69 359.19 370.79 359.19
  Q 429.65 359.30 488.50 359.25
  A 0.87 0.85 -74.7 0 0 489.24 358.82
  Q 490.92 355.82 489.89 360.09
  Z"
/>
<path fill="#ca554b" d="
  M 468.54 398.50
  Q 460.37 410.84 450.73 421.98
  Q 449.61 420.75 447.25 420.75
  Q 254.90 420.70 62.56 420.81
  A 1.32 0.81 -58.3 0 0 61.76 421.21
  Q 61.23 421.75 60.85 420.78
  A 0.42 0.22 67.2 0 0 60.47 420.46
  Q 60.35 420.54 60.25 420.79
  Q 50.92 409.82 43.00 397.79
  Q 43.07 396.98 43.57 396.40
  A 1.24 0.94 15.5 0 1 44.43 396.06
  Q 50.48 396.08 56.50 395.50
  Q 57.69 395.38 59.81 395.68
  Q 61.26 395.88 63.07 395.69
  Q 64.90 395.50 66.72 395.71
  Q 69.25 395.99 70.31 395.98
  Q 75.81 395.93 81.31 395.97
  Q 108.40 396.19 135.49 395.76
  Q 135.93 395.75 136.42 395.48
  Q 137.51 394.87 138.58 395.30
  Q 140.19 395.94 140.44 395.96
  Q 142.39 396.15 144.89 395.53
  Q 145.72 395.33 146.56 395.50
  Q 150.61 396.35 153.53 395.42
  Q 154.03 395.26 154.50 395.34
  Q 155.91 395.60 157.32 395.80
  Q 158.50 395.98 160.11 395.56
  Q 163.32 394.72 166.53 395.83
  A 1.27 1.20 -46.6 0 0 167.45 395.78
  Q 169.19 395.01 170.92 395.40
  Q 173.56 396.00 174.18 396.00
  Q 189.34 396.00 204.50 396.00
  Q 212.66 396.00 224.51 395.77
  Q 252.38 395.24 283.00 395.75
  Q 315.35 396.28 352.56 395.87
  Q 359.07 395.79 370.94 395.92
  Q 380.14 396.01 389.35 395.82
  Q 389.68 395.82 395.64 395.93
  Q 397.75 395.97 399.85 395.79
  Q 402.41 395.58 404.03 395.62
  Q 425.60 396.17 447.17 395.84
  Q 451.40 395.78 457.83 395.96
  Q 463.16 396.10 468.50 396.01
  A 0.41 0.38 -86.1 0 1 468.88 396.48
  L 468.54 398.50
  Z"
/>
<path fill="#cf6448" d="
  M 450.73 421.98
  Q 441.47 433.10 430.79 442.75
  Q 431.34 441.32 430.31 441.31
  Q 363.16 441.17 83.25 441.19
  Q 81.51 441.19 79.99 440.52
  A 0.35 0.32 14.5 0 0 79.50 440.78
  L 79.46 441.25
  Q 69.29 431.55 60.25 420.79
  Q 60.35 420.54 60.47 420.46
  A 0.42 0.22 67.2 0 1 60.85 420.78
  Q 61.23 421.75 61.76 421.21
  A 1.32 0.81 -58.3 0 1 62.56 420.81
  Q 254.90 420.70 447.25 420.75
  Q 449.61 420.75 450.73 421.98
  Z"
/>
<path fill="#d37145" d="
  M 430.79 442.75
  Q 422.38 450.92 413.04 458.00
  Q 409.66 457.00 407.25 457.00
  Q 256.39 457.24 105.53 457.07
  Q 103.72 457.06 102.12 457.27
  Q 100.41 457.49 98.71 457.75
  Q 88.61 450.06 79.46 441.25
  L 79.50 440.78
  A 0.35 0.32 14.5 0 1 79.99 440.52
  Q 81.51 441.19 83.25 441.19
  Q 363.16 441.17 430.31 441.31
  Q 431.34 441.32 430.79 442.75
  Z"
/>
<path fill="#d77f43" d="
  M 413.04 458.00
  Q 391.78 474.63 367.50 486.46
  Q 367.92 485.70 367.85 485.39
  A 1.01 0.09 19.8 0 0 366.98 484.99
  Q 365.57 484.49 363.00 484.50
  Q 300.21 484.77 144.56 484.31
  A 0.76 0.63 7.1 0 0 143.86 484.76
  Q 143.63 485.47 144.00 486.21
  Q 119.82 474.42 98.71 457.75
  Q 100.41 457.49 102.12 457.27
  Q 103.72 457.06 105.53 457.07
  Q 256.39 457.24 407.25 457.00
  Q 409.66 457.00 413.04 458.00
  Z"
/>
<path fill="#dd913f" d="
  M 367.50 486.46
  Q 317.17 510.62 261.19 512.00
  L 250.19 512.00
  Q 194.26 510.41 144.00 486.21
  Q 143.63 485.47 143.86 484.76
  A 0.76 0.63 7.1 0 1 144.56 484.31
  Q 300.21 484.77 363.00 484.50
  Q 365.57 484.49 366.98 484.99
  A 1.01 0.09 19.8 0 1 367.85 485.39
  Q 367.92 485.70 367.50 486.46
  Z"
/>
</svg>
