<?xml version="1.0" encoding="UTF-8" standalone="no"?>
<!DOCTYPE svg PUBLIC "-//W3C//DTD SVG 1.1//EN" "http://www.w3.org/Graphics/SVG/1.1/DTD/svg11.dtd">
<svg xmlns="http://www.w3.org/2000/svg" version="1.1" viewBox="0 0 402 193">
<g stroke-width="2.00" fill="none" stroke-linecap="butt">
<path stroke="#9597a5" vector-effect="non-scaling-stroke" d="
  M 322.65 171.44
  A 0.34 0.34 -77.4 0 1 322.34 170.95
  L 398.70 5.52
  A 0.37 0.36 -77.5 0 0 398.37 5.00
  L 302.57 5.00
  A 0.82 0.82 -89.6 0 0 301.75 5.82
  L 301.75 22.21
  A 0.81 0.80 0.4 0 0 302.55 23.01
  L 370.51 23.24
  A 0.32 0.32 -76.7 0 1 370.79 23.70
  L 293.84 189.03
  A 0.33 0.33 -77.8 0 0 294.14 189.50
  L 394.44 189.44
  A 0.51 0.50 -90.0 0 0 394.94 188.93
  L 395.00 172.02
  A 0.52 0.52 90.0 0 0 394.48 171.50
  L 322.65 171.44"
/>
<path stroke="#9597a5" vector-effect="non-scaling-stroke" d="
  M 170.31 76.18
  L 170.25 6.17
  A 0.67 0.66 90.0 0 0 169.59 5.50
  L 152.06 5.50
  A 0.56 0.56 0.8 0 0 151.50 6.06
  L 151.50 189.44
  A 0.56 0.56 0.0 0 0 152.06 190.00
  L 169.44 190.00
  A 0.81 0.81 0.0 0 0 170.25 189.19
  L 170.25 103.45
  A 2.18 2.14 -20.8 0 1 171.00 101.82
  L 192.37 83.21
  A 0.59 0.59 -37.2 0 1 193.25 83.33
  L 261.50 189.55
  A 0.98 0.97 73.4 0 0 262.32 190.00
  L 284.90 190.00
  Q 286.06 190.00 285.45 189.01
  L 211.17 68.88
  A 0.63 0.63 -37.1 0 1 211.28 68.09
  L 278.41 6.02
  Q 278.97 5.50 278.21 5.50
  L 251.81 5.56
  A 1.31 1.30 23.9 0 0 250.94 5.89
  L 170.74 76.37
  Q 170.31 76.75 170.31 76.18"
/>
<path stroke="#9597a5" vector-effect="non-scaling-stroke" d="
  M 97.25 104.64
  Q 96.04 103.39 94.30 103.21
  Q 85.24 102.28 78.32 100.93
  Q 76.34 100.54 74.70 99.49
  Q 71.60 97.51 71.48 97.44
  Q 61.90 92.50 52.97 86.49
  Q 50.80 85.03 49.64 83.38
  Q 48.31 81.48 47.41 79.32
  Q 46.18 76.37 43.61 74.59
  Q 43.19 74.30 42.95 73.88
  Q 41.62 71.47 39.42 69.80
  A 1.19 1.16 29.9 0 0 37.61 70.26
  L 34.73 77.34
  A 1.80 1.36 -89.8 0 1 34.15 78.10
  Q 29.17 81.43 23.32 82.85
  Q 19.44 83.80 17.19 80.56
  Q 15.82 78.60 13.57 76.64
  A 1.48 1.24 61.4 0 0 12.68 76.29
  Q 10.42 76.33 9.88 78.49
  Q 9.53 79.90 9.50 79.99
  Q 5.34 92.21 4.09 105.06
  Q 4.08 105.10 4.15 106.92
  Q 4.20 108.03 3.75 109.75
  Q 2.64 114.03 3.27 120.70
  A 0.85 0.81 9.8 0 0 3.78 121.39
  Q 8.92 123.56 12.75 124.00
  Q 27.07 125.64 43.59 125.31
  Q 59.55 124.99 61.42 124.98
  Q 74.87 124.87 79.25 124.25
  Q 85.16 123.42 95.25 120.75
  Q 98.86 119.80 100.79 117.35
  Q 102.11 115.68 101.63 113.22
  Q 100.66 108.15 97.25 104.64"
/>
<path stroke="#9597a5" vector-effect="non-scaling-stroke" d="
  M 38.40 71.77
  L 36.07 77.06
  Q 35.52 78.31 36.80 77.57
  L 41.26 75.00
  A 0.89 0.86 -35.3 0 0 41.51 73.68
  L 39.80 71.68
  A 0.87 0.78 38.0 0 0 38.40 71.77"
/>
<path stroke="#9597a5" vector-effect="non-scaling-stroke" d="
  M 74.92 103.20
  Q 73.03 97.16 67.06 96.42
  Q 65.36 96.20 63.29 97.26
  Q 61.47 98.18 59.64 98.94
  Q 58.03 99.61 56.51 98.85
  L 44.06 92.62
  Q 41.85 91.51 42.99 89.29
  Q 43.62 88.06 45.18 86.16
  Q 47.55 83.29 45.91 79.92
  Q 44.24 76.51 40.44 77.44
  Q 38.37 77.94 34.48 81.73
  Q 28.85 87.21 21.47 89.36
  Q 17.82 90.42 15.59 89.84
  Q 12.13 88.95 11.28 84.83
  Q 11.15 84.19 10.90 83.87
  Q 10.12 82.84 9.62 84.54
  Q 7.32 92.34 5.22 100.21
  Q 5.03 100.94 5.03 101.45
  Q 5.06 103.16 6.41 102.14
  Q 6.84 101.81 7.28 101.08
  Q 9.30 97.68 12.80 96.32
  Q 14.69 95.59 16.67 96.47
  Q 18.54 97.29 20.18 98.57
  Q 26.94 103.81 34.27 108.22
  Q 37.96 110.46 42.12 115.37
  A 1.39 1.38 -29.5 0 0 43.63 115.78
  Q 46.69 114.71 50.18 114.39
  Q 53.24 114.10 56.76 114.96
  Q 61.44 116.09 66.63 118.00
  A 0.81 0.81 21.5 0 0 67.65 117.56
  Q 69.84 112.50 74.19 110.94
  Q 76.01 110.29 80.50 109.50
  Q 87.90 108.20 95.36 105.62
  Q 96.61 105.19 95.54 104.42
  Q 94.84 103.90 93.68 103.92
  Q 92.36 103.93 91.82 103.84
  Q 84.61 102.62 77.31 102.10
  A 0.55 0.53 -82.7 0 0 76.75 102.55
  Q 76.53 103.76 75.56 103.76
  A 0.80 0.64 80.1 0 1 74.92 103.20"
/>
<path stroke="#9597a5" vector-effect="non-scaling-stroke" d="
  M 49.28 86.99
  Q 47.82 86.02 46.35 87.53
  A 1.27 1.18 -52.9 0 0 46.55 89.47
  L 49.43 91.08
  A 0.46 0.44 -66.2 0 0 50.07 90.81
  Q 50.96 88.10 49.28 86.99"
/>
<path stroke="#9597a5" vector-effect="non-scaling-stroke" d="
  M 54.10 90.07
  A 1.77 1.75 45.8 0 0 52.39 90.04
  Q 49.73 91.46 51.80 92.70
  Q 53.08 93.47 54.65 94.16
  A 0.55 0.54 21.2 0 0 55.37 93.85
  Q 56.30 91.32 54.10 90.07"
/>
<path stroke="#9597a5" vector-effect="non-scaling-stroke" d="
  M 58.81 92.69
  Q 53.52 93.94 58.24 96.57
  Q 60.63 97.90 60.75 95.25
  Q 60.88 92.20 58.81 92.69"
/>
<path stroke="#9597a5" vector-effect="non-scaling-stroke" d="
  M 22.10 120.36
  Q 27.99 120.66 33.88 120.46
  Q 34.52 120.43 34.90 120.14
  Q 35.94 119.35 34.19 118.81
  Q 31.39 117.95 22.14 117.59
  Q 21.20 117.56 20.57 117.90
  Q 18.86 118.83 20.39 119.87
  Q 21.04 120.31 22.10 120.36"
/>
<path stroke="#9597a5" vector-effect="non-scaling-stroke" d="
  M 44.55 81.00
  A 1.44 1.44 0.0 0 0 43.11 79.56
  A 1.44 1.44 0.0 0 0 41.67 81.00
  A 1.44 1.44 0.0 0 0 43.11 82.44
  A 1.44 1.44 0.0 0 0 44.55 81.00"
/>
<path stroke="#9597a5" vector-effect="non-scaling-stroke" d="
  M 67.48 98.62
  A 1.44 1.44 0.0 0 0 66.04 97.18
  A 1.44 1.44 0.0 0 0 64.60 98.62
  A 1.44 1.44 0.0 0 0 66.04 100.06
  A 1.44 1.44 0.0 0 0 67.48 98.62"
/>
<path stroke="#9597a5" vector-effect="non-scaling-stroke" d="
  M 72.26 100.89
  A 1.45 1.45 0.0 0 0 70.81 99.44
  A 1.45 1.45 0.0 0 0 69.36 100.89
  A 1.45 1.45 0.0 0 0 70.81 102.34
  A 1.45 1.45 0.0 0 0 72.26 100.89"
/>
</g>
<path fill="#ffffff" d="
  M 0.00 0.00
  L 402.00 0.00
  L 402.00 193.00
  L 0.00 193.00
  L 0.00 0.00
  Z
  M 322.65 171.44
  A 0.34 0.34 -77.4 0 1 322.34 170.95
  L 398.70 5.52
  A 0.37 0.36 -77.5 0 0 398.37 5.00
  L 302.57 5.00
  A 0.82 0.82 -89.6 0 0 301.75 5.82
  L 301.75 22.21
  A 0.81 0.80 0.4 0 0 302.55 23.01
  L 370.51 23.24
  A 0.32 0.32 -76.7 0 1 370.79 23.70
  L 293.84 189.03
  A 0.33 0.33 -77.8 0 0 294.14 189.50
  L 394.44 189.44
  A 0.51 0.50 -90.0 0 0 394.94 188.93
  L 395.00 172.02
  A 0.52 0.52 90.0 0 0 394.48 171.50
  L 322.65 171.44
  Z
  M 170.31 76.18
  L 170.25 6.17
  A 0.67 0.66 90.0 0 0 169.59 5.50
  L 152.06 5.50
  A 0.56 0.56 0.8 0 0 151.50 6.06
  L 151.50 189.44
  A 0.56 0.56 0.0 0 0 152.06 190.00
  L 169.44 190.00
  A 0.81 0.81 0.0 0 0 170.25 189.19
  L 170.25 103.45
  A 2.18 2.14 -20.8 0 1 171.00 101.82
  L 192.37 83.21
  A 0.59 0.59 -37.2 0 1 193.25 83.33
  L 261.50 189.55
  A 0.98 0.97 73.4 0 0 262.32 190.00
  L 284.90 190.00
  Q 286.06 190.00 285.45 189.01
  L 211.17 68.88
  A 0.63 0.63 -37.1 0 1 211.28 68.09
  L 278.41 6.02
  Q 278.97 5.50 278.21 5.50
  L 251.81 5.56
  A 1.31 1.30 23.9 0 0 250.94 5.89
  L 170.74 76.37
  Q 170.31 76.75 170.31 76.18
  Z
  M 97.25 104.64
  Q 96.04 103.39 94.30 103.21
  Q 85.24 102.28 78.32 100.93
  Q 76.34 100.54 74.70 99.49
  Q 71.60 97.51 71.48 97.44
  Q 61.90 92.50 52.97 86.49
  Q 50.80 85.03 49.64 83.38
  Q 48.31 81.48 47.41 79.32
  Q 46.18 76.37 43.61 74.59
  Q 43.19 74.30 42.95 73.88
  Q 41.62 71.47 39.42 69.80
  A 1.19 1.16 29.9 0 0 37.61 70.26
  L 34.73 77.34
  A 1.80 1.36 -89.8 0 1 34.15 78.10
  Q 29.17 81.43 23.32 82.85
  Q 19.44 83.80 17.19 80.56
  Q 15.82 78.60 13.57 76.64
  A 1.48 1.24 61.4 0 0 12.68 76.29
  Q 10.42 76.33 9.88 78.49
  Q 9.53 79.90 9.50 79.99
  Q 5.34 92.21 4.09 105.06
  Q 4.08 105.10 4.15 106.92
  Q 4.20 108.03 3.75 109.75
  Q 2.64 114.03 3.27 120.70
  A 0.85 0.81 9.8 0 0 3.78 121.39
  Q 8.92 123.56 12.75 124.00
  Q 27.07 125.64 43.59 125.31
  Q 59.55 124.99 61.42 124.98
  Q 74.87 124.87 79.25 124.25
  Q 85.16 123.42 95.25 120.75
  Q 98.86 119.80 100.79 117.35
  Q 102.11 115.68 101.63 113.22
  Q 100.66 108.15 97.25 104.64
  Z"
/>
<path fill="#2a2e4b" d="
  M 322.65 171.44
  L 394.48 171.50
  A 0.52 0.52 -90.0 0 1 395.00 172.02
  L 394.94 188.93
  A 0.51 0.50 -90.0 0 1 394.44 189.44
  L 294.14 189.50
  A 0.33 0.33 -77.8 0 1 293.84 189.03
  L 370.79 23.70
  A 0.32 0.32 -76.7 0 0 370.51 23.24
  L 302.55 23.01
  A 0.81 0.80 0.4 0 1 301.75 22.21
  L 301.75 5.82
  A 0.82 0.82 -89.2 0 1 302.57 5.00
  L 398.37 5.00
  A 0.37 0.36 -77.5 0 1 398.70 5.52
  L 322.34 170.95
  A 0.34 0.34 -77.4 0 0 322.65 171.44
  Z"
/>
<path fill="#2a2e4b" d="
  M 170.31 76.18
  Q 170.31 76.75 170.74 76.37
  L 250.94 5.89
  A 1.31 1.30 23.9 0 1 251.81 5.56
  L 278.21 5.50
  Q 278.97 5.50 278.41 6.02
  L 211.28 68.09
  A 0.63 0.63 -37.1 0 0 211.17 68.88
  L 285.45 189.01
  Q 286.06 190.00 284.90 190.00
  L 262.32 190.00
  A 0.98 0.97 73.4 0 1 261.50 189.55
  L 193.25 83.33
  A 0.59 0.59 -37.2 0 0 192.37 83.21
  L 171.00 101.82
  A 2.18 2.14 -20.8 0 0 170.25 103.45
  L 170.25 189.19
  A 0.81 0.81 0.0 0 1 169.44 190.00
  L 152.06 190.00
  A 0.56 0.56 0.0 0 1 151.50 189.44
  L 151.50 6.06
  A 0.56 0.56 2.5 0 1 152.06 5.50
  L 169.59 5.50
  A 0.67 0.66 90.0 0 1 170.25 6.17
  L 170.31 76.18
  Z"
/>
<path fill="#2a2e4b" d="
  M 97.25 104.64
  Q 100.66 108.15 101.63 113.22
  Q 102.11 115.68 100.79 117.35
  Q 98.86 119.80 95.25 120.75
  Q 85.16 123.42 79.25 124.25
  Q 74.87 124.87 61.42 124.98
  Q 59.55 124.99 43.59 125.31
  Q 27.07 125.64 12.75 124.00
  Q 8.92 123.56 3.78 121.39
  A 0.85 0.81 9.8 0 1 3.27 120.70
  Q 2.64 114.03 3.75 109.75
  Q 4.20 108.03 4.15 106.92
  Q 4.08 105.10 4.09 105.06
  Q 5.34 92.21 9.50 79.99
  Q 9.53 79.90 9.88 78.49
  Q 10.42 76.33 12.68 76.29
  A 1.48 1.24 61.4 0 1 13.57 76.64
  Q 15.82 78.60 17.19 80.56
  Q 19.44 83.80 23.32 82.85
  Q 29.17 81.43 34.15 78.10
  A 1.80 1.36 -89.8 0 0 34.73 77.34
  L 37.61 70.26
  A 1.19 1.16 29.9 0 1 39.42 69.80
  Q 41.62 71.47 42.95 73.88
  Q 43.19 74.30 43.61 74.59
  Q 46.18 76.37 47.41 79.32
  Q 48.31 81.48 49.64 83.38
  Q 50.80 85.03 52.97 86.49
  Q 61.90 92.50 71.48 97.44
  Q 71.60 97.51 74.70 99.49
  Q 76.34 100.54 78.32 100.93
  Q 85.24 102.28 94.30 103.21
  Q 96.04 103.39 97.25 104.64
  Z
  M 38.40 71.77
  L 36.07 77.06
  Q 35.52 78.31 36.80 77.57
  L 41.26 75.00
  A 0.89 0.86 -35.3 0 0 41.51 73.68
  L 39.80 71.68
  A 0.87 0.78 38.0 0 0 38.40 71.77
  Z
  M 74.92 103.20
  Q 73.03 97.16 67.06 96.42
  Q 65.36 96.20 63.29 97.26
  Q 61.47 98.18 59.64 98.94
  Q 58.03 99.61 56.51 98.85
  L 44.06 92.62
  Q 41.85 91.51 42.99 89.29
  Q 43.62 88.06 45.18 86.16
  Q 47.55 83.29 45.91 79.92
  Q 44.24 76.51 40.44 77.44
  Q 38.37 77.94 34.48 81.73
  Q 28.85 87.21 21.47 89.36
  Q 17.82 90.42 15.59 89.84
  Q 12.13 88.95 11.28 84.83
  Q 11.15 84.19 10.90 83.87
  Q 10.12 82.84 9.62 84.54
  Q 7.32 92.34 5.22 100.21
  Q 5.03 100.94 5.03 101.45
  Q 5.06 103.16 6.41 102.14
  Q 6.84 101.81 7.28 101.08
  Q 9.30 97.68 12.80 96.32
  Q 14.69 95.59 16.67 96.47
  Q 18.54 97.29 20.18 98.57
  Q 26.94 103.81 34.27 108.22
  Q 37.96 110.46 42.12 115.37
  A 1.39 1.38 -29.5 0 0 43.63 115.78
  Q 46.69 114.71 50.18 114.39
  Q 53.24 114.10 56.76 114.96
  Q 61.44 116.09 66.63 118.00
  A 0.81 0.81 21.5 0 0 67.65 117.56
  Q 69.84 112.50 74.19 110.94
  Q 76.01 110.29 80.50 109.50
  Q 87.90 108.20 95.36 105.62
  Q 96.61 105.19 95.54 104.42
  Q 94.84 103.90 93.68 103.92
  Q 92.36 103.93 91.82 103.84
  Q 84.61 102.62 77.31 102.10
  A 0.55 0.53 -82.7 0 0 76.75 102.55
  Q 76.53 103.76 75.56 103.76
  A 0.80 0.64 80.1 0 1 74.92 103.20
  Z
  M 49.28 86.99
  Q 47.82 86.02 46.35 87.53
  A 1.27 1.18 -52.9 0 0 46.55 89.47
  L 49.43 91.08
  A 0.46 0.44 -66.2 0 0 50.07 90.81
  Q 50.96 88.10 49.28 86.99
  Z
  M 54.10 90.07
  A 1.77 1.75 45.8 0 0 52.39 90.04
  Q 49.73 91.46 51.80 92.70
  Q 53.08 93.47 54.65 94.16
  A 0.55 0.54 21.2 0 0 55.37 93.85
  Q 56.30 91.32 54.10 90.07
  Z
  M 58.81 92.69
  Q 53.52 93.94 58.24 96.57
  Q 60.63 97.90 60.75 95.25
  Q 60.88 92.20 58.81 92.69
  Z
  M 22.10 120.36
  Q 27.99 120.66 33.88 120.46
  Q 34.52 120.43 34.90 120.14
  Q 35.94 119.35 34.19 118.81
  Q 31.39 117.95 22.14 117.59
  Q 21.20 117.56 20.57 117.90
  Q 18.86 118.83 20.39 119.87
  Q 21.04 120.31 22.10 120.36
  Z"
/>
<path fill="#ffffff" d="
  M 38.40 71.77
  A 0.87 0.78 38.0 0 1 39.80 71.68
  L 41.51 73.68
  A 0.89 0.86 -35.3 0 1 41.26 75.00
  L 36.80 77.57
  Q 35.52 78.31 36.07 77.06
  L 38.40 71.77
  Z"
/>
<path fill="#ffffff" d="
  M 75.56 103.76
  Q 76.53 103.76 76.75 102.55
  A 0.55 0.53 -82.7 0 1 77.31 102.10
  Q 84.61 102.62 91.82 103.84
  Q 92.36 103.93 93.68 103.92
  Q 94.84 103.90 95.54 104.42
  Q 96.61 105.19 95.36 105.62
  Q 87.90 108.20 80.50 109.50
  Q 76.01 110.29 74.19 110.94
  Q 69.84 112.50 67.65 117.56
  A 0.81 0.81 21.5 0 1 66.63 118.00
  Q 61.44 116.09 56.76 114.96
  Q 53.24 114.10 50.18 114.39
  Q 46.69 114.71 43.63 115.78
  A 1.39 1.38 -29.5 0 1 42.12 115.37
  Q 37.96 110.46 34.27 108.22
  Q 26.94 103.81 20.18 98.57
  Q 18.54 97.29 16.67 96.47
  Q 14.69 95.59 12.80 96.32
  Q 9.30 97.68 7.28 101.08
  Q 6.84 101.81 6.41 102.14
  Q 5.06 103.16 5.03 101.45
  Q 5.03 100.94 5.22 100.21
  Q 7.32 92.34 9.62 84.54
  Q 10.12 82.84 10.90 83.87
  Q 11.15 84.19 11.28 84.83
  Q 12.13 88.95 15.59 89.84
  Q 17.82 90.42 21.47 89.36
  Q 28.85 87.21 34.48 81.73
  Q 38.37 77.94 40.44 77.44
  Q 44.24 76.51 45.91 79.92
  Q 47.55 83.29 45.18 86.16
  Q 43.62 88.06 42.99 89.29
  Q 41.85 91.51 44.06 92.62
  L 56.51 98.85
  Q 58.03 99.61 59.64 98.94
  Q 61.47 98.18 63.29 97.26
  Q 65.36 96.20 67.06 96.42
  Q 73.03 97.16 74.92 103.20
  A 0.80 0.64 80.1 0 0 75.56 103.76
  Z
  M 44.55 81.00
  A 1.44 1.44 0.0 0 0 43.11 79.56
  A 1.44 1.44 0.0 0 0 41.67 81.00
  A 1.44 1.44 0.0 0 0 43.11 82.44
  A 1.44 1.44 0.0 0 0 44.55 81.00
  Z
  M 67.48 98.62
  A 1.44 1.44 0.0 0 0 66.04 97.18
  A 1.44 1.44 0.0 0 0 64.60 98.62
  A 1.44 1.44 0.0 0 0 66.04 100.06
  A 1.44 1.44 0.0 0 0 67.48 98.62
  Z
  M 72.26 100.89
  A 1.45 1.45 0.0 0 0 70.81 99.44
  A 1.45 1.45 0.0 0 0 69.36 100.89
  A 1.45 1.45 0.0 0 0 70.81 102.34
  A 1.45 1.45 0.0 0 0 72.26 100.89
  Z"
/>
<circle fill="#2a2e4b" cx="43.11" cy="81.00" r="1.44"/>
<path fill="#ffffff" d="
  M 49.28 86.99
  Q 50.96 88.10 50.07 90.81
  A 0.46 0.44 -66.2 0 1 49.43 91.08
  L 46.55 89.47
  A 1.27 1.18 -52.9 0 1 46.35 87.53
  Q 47.82 86.02 49.28 86.99
  Z"
/>
<path fill="#ffffff" d="
  M 54.10 90.07
  Q 56.30 91.32 55.37 93.85
  A 0.55 0.54 21.2 0 1 54.65 94.16
  Q 53.08 93.47 51.80 92.70
  Q 49.73 91.46 52.39 90.04
  A 1.77 1.75 45.8 0 1 54.10 90.07
  Z"
/>
<path fill="#ffffff" d="
  M 58.81 92.69
  Q 60.88 92.20 60.75 95.25
  Q 60.63 97.90 58.24 96.57
  Q 53.52 93.94 58.81 92.69
  Z"
/>
<circle fill="#2a2e4b" cx="66.04" cy="98.62" r="1.44"/>
<circle fill="#2a2e4b" cx="70.81" cy="100.89" r="1.45"/>
<path fill="#ffffff" d="
  M 20.39 119.87
  Q 18.86 118.83 20.57 117.90
  Q 21.20 117.56 22.14 117.59
  Q 31.39 117.95 34.19 118.81
  Q 35.94 119.35 34.90 120.14
  Q 34.52 120.43 33.88 120.46
  Q 27.99 120.66 22.10 120.36
  Q 21.04 120.31 20.39 119.87
  Z"
/>
</svg>
