<?xml version="1.0" encoding="UTF-8" standalone="no"?>
<!DOCTYPE svg PUBLIC "-//W3C//DTD SVG 1.1//EN" "http://www.w3.org/Graphics/SVG/1.1/DTD/svg11.dtd">
<svg xmlns="http://www.w3.org/2000/svg" version="1.1" viewBox="0 0 551 112">
<path fill="#372c7d" fill-opacity="0.996" d="
  M 251.81 0.00
  L 254.30 0.06
  Q 282.03 0.06 299.85 20.47
  A 0.84 0.84 -41.8 0 1 299.78 21.65
  L 278.48 40.60
  A 0.71 0.71 -39.4 0 1 277.45 40.50
  Q 268.66 29.26 255.53 28.84
  Q 248.43 28.61 242.85 31.47
  Q 236.62 34.67 233.31 41.06
  Q 228.90 49.61 230.69 60.22
  Q 233.12 74.53 244.62 79.21
  Q 253.02 82.62 262.04 80.14
  Q 271.07 77.66 277.26 69.63
  A 0.92 0.92 39.9 0 1 278.61 69.51
  L 299.87 88.46
  A 0.53 0.53 40.6 0 1 299.93 89.19
  Q 291.44 99.98 278.69 105.19
  Q 265.28 110.67 249.00 109.81
  Q 237.77 109.22 227.69 105.00
  Q 218.37 101.09 211.04 94.15
  Q 192.16 76.28 195.25 48.00
  Q 196.89 33.02 205.75 21.61
  Q 211.70 13.95 220.79 8.66
  Q 234.83 0.48 251.81 0.00
  Z
  M 296.38 89.99
  A 1.01 1.00 43.3 0 0 296.33 88.53
  L 279.04 72.99
  A 1.09 1.08 42.1 0 0 277.52 73.06
  Q 271.58 79.44 264.15 82.07
  Q 256.83 84.66 248.69 82.97
  Q 234.50 80.03 229.60 65.90
  Q 227.94 61.12 227.83 55.93
  Q 227.71 50.64 229.00 45.75
  Q 230.83 38.83 235.65 33.94
  Q 240.08 29.45 247.00 27.48
  Q 262.84 22.98 275.71 34.88
  Q 275.80 34.95 277.01 36.37
  Q 278.41 37.99 279.83 36.48
  Q 281.14 35.09 281.19 35.04
  Q 289.13 28.19 296.87 21.01
  A 0.35 0.34 -42.7 0 0 296.90 20.52
  Q 284.60 6.78 266.25 3.73
  Q 252.22 1.41 239.44 3.94
  Q 222.39 7.31 210.99 19.46
  Q 203.97 26.94 200.51 36.33
  Q 196.42 47.41 197.49 59.75
  Q 199.19 79.39 212.31 92.16
  Q 219.23 98.89 229.03 102.84
  Q 241.74 107.96 255.56 107.38
  Q 266.50 106.92 275.19 103.81
  Q 286.72 99.68 296.38 89.99
  Z"
/>
<path fill="#010101" fill-opacity="0.996" d="
  M 37.06 39.58
  Q 37.06 40.42 37.63 39.80
  L 71.22 2.68
  A 1.15 1.14 -68.6 0 1 72.06 2.31
  L 109.24 2.25
  Q 110.08 2.25 109.52 2.87
  L 68.60 48.02
  A 0.71 0.69 -42.6 0 0 68.55 48.92
  L 111.68 106.41
  Q 112.31 107.25 111.27 107.25
  L 72.57 107.25
  A 2.54 2.46 -18.0 0 1 70.57 106.27
  L 45.69 73.23
  A 0.89 0.88 47.5 0 0 44.33 73.16
  L 37.64 80.59
  A 2.50 2.49 66.2 0 0 37.00 82.26
  L 37.00 106.58
  A 0.67 0.67 0.0 0 1 36.33 107.25
  L 3.07 107.25
  A 0.82 0.82 -2.1 0 1 2.25 106.43
  L 2.25 3.17
  A 0.92 0.92 0.0 0 1 3.17 2.25
  L 36.02 2.25
  A 0.99 0.98 90.0 0 1 37.00 3.24
  L 37.06 39.58
  Z
  M 102.96 6.59
  Q 105.47 4.62 101.96 4.71
  Q 100.63 4.75 100.53 4.75
  Q 87.25 4.75 73.52 4.75
  A 2.06 2.01 -68.4 0 0 72.02 5.42
  L 35.38 46.00
  Q 34.50 46.98 34.50 45.66
  L 34.50 5.41
  A 0.66 0.66 -87.7 0 0 33.84 4.75
  L 5.33 4.75
  A 0.52 0.52 0.0 0 0 4.81 5.27
  L 4.69 104.31
  A 0.52 0.50 90.0 0 0 5.19 104.83
  L 34.07 104.83
  A 0.52 0.49 -90.0 0 0 34.56 104.31
  L 34.56 81.31
  A 1.41 1.22 68.9 0 1 34.88 80.42
  L 44.59 69.50
  A 0.71 0.69 47.7 0 1 45.67 69.57
  L 72.10 104.61
  A 1.00 0.99 71.1 0 0 72.89 105.00
  L 106.16 105.00
  Q 107.29 105.00 106.62 104.09
  L 65.44 48.90
  A 1.03 1.02 48.1 0 1 65.51 47.60
  Q 83.65 27.82 101.78 7.65
  Q 102.21 7.18 102.96 6.59
  Z"
/>
<path fill="#4d3da9" fill-opacity="0.996" d="
  M 384.60 13.29
  Q 389.41 7.87 394.46 2.67
  A 1.19 1.18 -67.8 0 1 395.31 2.31
  L 431.87 2.25
  Q 432.96 2.25 432.23 3.05
  L 391.91 47.56
  A 1.48 1.45 -42.6 0 0 391.81 49.43
  L 434.76 106.51
  Q 435.27 107.19 434.43 107.19
  L 395.86 107.25
  A 2.73 2.62 -17.9 0 1 393.72 106.21
  L 369.12 73.56
  A 1.32 1.31 -41.9 0 0 367.12 73.46
  L 361.06 79.82
  Q 359.74 81.21 359.81 82.93
  Q 360.34 94.76 359.59 106.57
  A 0.53 0.52 -88.2 0 1 359.07 107.07
  L 326.06 107.20
  A 0.57 0.55 87.1 0 1 325.51 106.69
  Q 325.25 104.00 325.25 99.25
  Q 325.25 51.13 325.25 3.16
  A 0.91 0.90 90.0 0 1 326.15 2.25
  L 359.18 2.31
  A 0.52 0.51 -0.6 0 1 359.70 2.81
  Q 360.36 20.93 359.82 38.70
  Q 359.76 40.83 361.17 39.24
  Q 367.88 31.68 374.59 24.42
  Q 377.70 21.05 384.60 13.29
  Z
  M 357.80 45.94
  Q 357.37 31.97 357.78 18.00
  Q 357.97 11.70 357.36 5.43
  A 0.56 0.54 87.1 0 0 356.82 4.93
  L 328.27 4.69
  A 0.52 0.51 -89.5 0 0 327.75 5.21
  L 327.75 104.69
  A 0.56 0.56 0.0 0 0 328.31 105.25
  L 357.08 105.25
  A 0.67 0.67 0.2 0 0 357.75 104.58
  L 357.75 80.99
  A 1.31 1.30 66.1 0 1 358.08 80.12
  L 367.76 69.32
  A 0.43 0.43 -42.3 0 1 368.42 69.35
  L 395.14 104.84
  A 1.03 1.02 71.3 0 0 395.96 105.25
  L 429.44 105.19
  Q 430.53 105.19 429.87 104.31
  L 388.40 48.67
  A 0.58 0.58 -42.9 0 1 388.43 47.93
  L 426.79 5.74
  Q 427.64 4.81 426.39 4.81
  L 396.52 4.75
  A 2.37 2.24 -67.8 0 0 394.82 5.52
  L 358.16 46.07
  Q 357.81 46.45 357.80 45.94
  Z"
/>
<path fill="#1e1b3d" fill-opacity="0.996" d="
  M 167.00 106.99
  A 0.26 0.26 0.0 0 1 166.74 107.25
  L 132.26 107.25
  A 0.26 0.26 0.0 0 1 132.00 106.99
  L 132.00 2.51
  A 0.26 0.26 0.0 0 1 132.26 2.25
  L 166.74 2.25
  A 0.26 0.26 0.0 0 1 167.00 2.51
  L 167.00 106.99
  Z
  M 164.75 5.17
  A 0.41 0.41 0.0 0 0 164.34 4.76
  L 134.66 4.76
  A 0.41 0.41 0.0 0 0 134.25 5.17
  L 134.25 104.59
  A 0.41 0.41 0.0 0 0 134.66 105.00
  L 164.34 105.00
  A 0.41 0.41 0.0 0 0 164.75 104.59
  L 164.75 5.17
  Z"
/>
<path fill="#594cd6" fill-opacity="0.996" d="
  M 498.25 79.85
  Q 498.63 80.00 499.50 79.98
  Q 523.28 79.45 547.07 79.93
  A 0.52 0.51 0.0 0 1 547.58 80.43
  L 547.73 106.39
  A 0.87 0.85 -0.3 0 1 546.86 107.25
  L 452.06 107.19
  A 0.81 0.80 -0.0 0 1 451.25 106.39
  L 451.31 86.06
  A 1.35 1.34 -24.7 0 1 451.64 85.18
  L 498.20 31.16
  Q 499.41 29.75 497.55 29.75
  L 453.76 29.75
  A 0.95 0.94 0.0 0 1 452.81 28.81
  L 452.75 2.92
  A 0.67 0.67 -0.7 0 1 453.42 2.25
  L 544.09 2.25
  A 0.91 0.91 -90.0 0 1 545.00 3.16
  L 545.00 22.96
  A 2.56 2.56 -24.6 0 1 544.38 24.63
  L 497.95 78.69
  A 0.73 0.73 30.7 0 0 498.25 79.85
  Z
  M 499.85 32.61
  Q 477.11 59.11 454.74 85.06
  Q 453.42 86.59 453.47 88.69
  L 453.81 104.05
  A 0.72 0.71 89.2 0 0 454.52 104.75
  L 544.24 104.75
  A 1.01 1.01 90.0 0 0 545.25 103.74
  L 545.19 83.32
  A 1.06 1.06 -0.1 0 0 544.13 82.26
  L 492.55 82.19
  Q 491.87 82.19 492.31 81.68
  Q 516.80 53.18 541.51 24.75
  Q 542.81 23.26 542.75 20.00
  Q 542.62 12.40 542.93 4.93
  A 0.41 0.41 -88.7 0 0 542.52 4.50
  L 455.29 4.44
  A 0.54 0.53 -0.0 0 0 454.75 4.97
  L 454.75 25.92
  A 1.33 1.33 89.6 0 0 456.08 27.25
  L 503.06 27.25
  Q 504.55 27.25 503.56 28.36
  Q 501.87 30.26 499.85 32.61
  Z"
/>
</svg>
