<?xml version="1.0" encoding="UTF-8" standalone="no"?>
<!DOCTYPE svg PUBLIC "-//W3C//DTD SVG 1.1//EN" "http://www.w3.org/Graphics/SVG/1.1/DTD/svg11.dtd">
<svg xmlns="http://www.w3.org/2000/svg" version="1.1" viewBox="0 0 128 128">
<path fill="#ffffff" d="
  M 128.00 23.31
  L 128.00 24.81
  Q 126.66 30.37 122.08 31.65
  Q 120.84 32.00 113.89 32.00
  Q 63.99 32.00 14.08 32.00
  Q 7.18 32.00 5.95 31.66
  Q 1.40 30.41 0.00 24.94
  L 0.00 22.94
  Q 1.57 17.35 6.33 16.21
  Q 7.21 16.00 14.70 16.00
  Q 64.13 16.00 113.56 16.00
  Q 120.82 16.00 121.92 16.29
  Q 126.69 17.53 128.00 23.31
  Z"
/>
<path fill="#ffffff" d="
  M 128.00 63.31
  L 128.00 64.81
  Q 126.66 70.37 122.08 71.65
  Q 120.84 72.00 113.89 72.00
  Q 63.99 72.00 14.08 72.00
  Q 7.18 72.00 5.95 71.66
  Q 1.40 70.41 0.00 64.94
  L 0.00 62.94
  Q 1.57 57.35 6.33 56.21
  Q 7.21 56.00 14.70 56.00
  Q 64.13 56.00 113.56 56.00
  Q 120.82 56.00 121.92 56.29
  Q 126.69 57.53 128.00 63.31
  Z"
/>
<path fill="#ffffff" d="
  M 128.00 103.31
  L 128.00 104.81
  Q 126.66 110.37 122.08 111.65
  Q 120.84 112.00 113.89 112.00
  Q 63.99 112.00 14.08 112.00
  Q 7.18 112.00 5.95 111.66
  Q 1.40 110.41 0.00 104.94
  L 0.00 102.94
  Q 1.57 97.35 6.33 96.21
  Q 7.21 96.00 14.70 96.00
  Q 64.13 96.00 113.56 96.00
  Q 120.82 96.00 121.92 96.29
  Q 126.69 97.53 128.00 103.31
  Z"
/>
</svg>
