<?xml version="1.0" encoding="UTF-8" standalone="no"?>
<!DOCTYPE svg PUBLIC "-//W3C//DTD SVG 1.1//EN" "http://www.w3.org/Graphics/SVG/1.1/DTD/svg11.dtd">
<svg xmlns="http://www.w3.org/2000/svg" version="1.1" viewBox="0 0 512 512">
<path stroke="#80d3ef" stroke-width="2.00" fill="none" stroke-linecap="butt" vector-effect="non-scaling-stroke" d="
  M 363.16 179.58
  Q 371.78 170.59 376.21 158.98
  Q 376.90 157.17 376.78 155.92
  Q 376.54 153.38 374.11 153.57
  Q 372.88 153.67 370.60 154.93
  Q 359.78 160.90 347.90 164.32
  Q 344.95 165.17 343.40 165.03
  Q 341.02 164.81 339.04 163.21
  Q 316.71 145.12 290.12 151.16
  Q 280.10 153.44 271.81 158.87
  Q 251.93 171.89 248.20 196.69
  Q 247.75 199.66 247.75 203.84
  Q 247.75 207.42 247.75 211.01
  Q 247.75 213.53 245.25 213.25
  Q 185.38 206.59 146.81 160.94
  Q 144.67 158.40 142.66 159.58
  Q 141.60 160.21 140.45 162.43
  Q 132.19 178.34 134.50 195.25
  Q 137.03 213.74 149.70 226.82
  Q 150.70 227.85 149.33 227.44
  Q 143.39 225.69 137.94 222.81
  Q 134.10 220.79 133.75 224.25
  Q 133.42 227.49 133.81 230.74
  Q 137.46 261.21 164.61 275.59
  Q 165.94 276.30 164.43 276.24
  Q 160.73 276.08 156.84 275.52
  Q 154.91 275.25 154.04 275.44
  Q 152.08 275.85 151.90 277.67
  Q 151.79 278.80 152.70 281.10
  Q 164.00 309.57 194.90 316.57
  Q 195.53 316.72 194.99 317.06
  Q 167.18 334.87 133.82 334.07
  Q 131.27 334.01 129.90 334.92
  Q 127.43 336.55 128.33 339.19
  Q 128.99 341.14 131.81 342.71
  Q 179.46 369.32 234.06 360.05
  Q 271.04 353.77 300.01 331.10
  Q 307.65 325.13 314.75 317.61
  Q 356.59 273.27 358.27 210.67
  Q 358.34 207.99 358.85 206.52
  Q 359.67 204.19 361.19 202.94
  Q 373.84 192.57 382.87 178.94
  Q 385.10 175.58 382.01 174.44
  A 3.66 3.66 -47.0 0 0 379.21 174.54
  Q 370.99 178.28 363.31 179.84
  Q 362.81 179.94 363.16 179.58"
/>
<path fill="#00a6de" d="
  M 249.31 0.00
  L 263.06 0.00
  Q 342.97 2.85 405.69 48.31
  Q 477.50 100.36 502.75 187.50
  Q 511.19 216.63 512.00 251.81
  L 512.00 259.81
  Q 510.92 316.02 487.94 364.44
  Q 450.81 442.67 373.87 483.18
  Q 364.83 487.94 355.79 491.75
  Q 311.12 510.58 262.19 512.00
  L 249.69 512.00
  Q 172.14 509.47 110.31 466.44
  Q 39.26 416.99 11.75 333.00
  Q 1.25 300.95 0.00 262.44
  L 0.00 250.69
  Q 1.13 204.66 16.56 165.31
  Q 51.61 75.94 134.44 30.69
  Q 186.97 1.99 249.31 0.00
  Z
  M 363.16 179.58
  Q 371.78 170.59 376.21 158.98
  Q 376.90 157.17 376.78 155.92
  Q 376.54 153.38 374.11 153.57
  Q 372.88 153.67 370.60 154.93
  Q 359.78 160.90 347.90 164.32
  Q 344.95 165.17 343.40 165.03
  Q 341.02 164.81 339.04 163.21
  Q 316.71 145.12 290.12 151.16
  Q 280.10 153.44 271.81 158.87
  Q 251.93 171.89 248.20 196.69
  Q 247.75 199.66 247.75 203.84
  Q 247.75 207.42 247.75 211.01
  Q 247.75 213.53 245.25 213.25
  Q 185.38 206.59 146.81 160.94
  Q 144.67 158.40 142.66 159.58
  Q 141.60 160.21 140.45 162.43
  Q 132.19 178.34 134.50 195.25
  Q 137.03 213.74 149.70 226.82
  Q 150.70 227.85 149.33 227.44
  Q 143.39 225.69 137.94 222.81
  Q 134.10 220.79 133.75 224.25
  Q 133.42 227.49 133.81 230.74
  Q 137.46 261.21 164.61 275.59
  Q 165.94 276.30 164.43 276.24
  Q 160.73 276.08 156.84 275.52
  Q 154.91 275.25 154.04 275.44
  Q 152.08 275.85 151.90 277.67
  Q 151.79 278.80 152.70 281.10
  Q 164.00 309.57 194.90 316.57
  Q 195.53 316.72 194.99 317.06
  Q 167.18 334.87 133.82 334.07
  Q 131.27 334.01 129.90 334.92
  Q 127.43 336.55 128.33 339.19
  Q 128.99 341.14 131.81 342.71
  Q 179.46 369.32 234.06 360.05
  Q 271.04 353.77 300.01 331.10
  Q 307.65 325.13 314.75 317.61
  Q 356.59 273.27 358.27 210.67
  Q 358.34 207.99 358.85 206.52
  Q 359.67 204.19 361.19 202.94
  Q 373.84 192.57 382.87 178.94
  Q 385.10 175.58 382.01 174.44
  A 3.66 3.66 -47.0 0 0 379.21 174.54
  Q 370.99 178.28 363.31 179.84
  Q 362.81 179.94 363.16 179.58
  Z"
/>
<path fill="#ffffff" d="
  M 363.31 179.84
  Q 370.99 178.28 379.21 174.54
  A 3.66 3.66 -47.0 0 1 382.01 174.44
  Q 385.10 175.58 382.87 178.94
  Q 373.84 192.57 361.19 202.94
  Q 359.67 204.19 358.85 206.52
  Q 358.34 207.99 358.27 210.67
  Q 356.59 273.27 314.75 317.61
  Q 307.65 325.13 300.01 331.10
  Q 271.04 353.77 234.06 360.05
  Q 179.46 369.32 131.81 342.71
  Q 128.99 341.14 128.33 339.19
  Q 127.43 336.55 129.90 334.92
  Q 131.27 334.01 133.82 334.07
  Q 167.18 334.87 194.99 317.06
  Q 195.53 316.72 194.90 316.57
  Q 164.00 309.57 152.70 281.10
  Q 151.79 278.80 151.90 277.67
  Q 152.08 275.85 154.04 275.44
  Q 154.91 275.25 156.84 275.52
  Q 160.73 276.08 164.43 276.24
  Q 165.94 276.30 164.61 275.59
  Q 137.46 261.21 133.81 230.74
  Q 133.42 227.49 133.75 224.25
  Q 134.10 220.79 137.94 222.81
  Q 143.39 225.69 149.33 227.44
  Q 150.70 227.85 149.70 226.82
  Q 137.03 213.74 134.50 195.25
  Q 132.19 178.34 140.45 162.43
  Q 141.60 160.21 142.66 159.58
  Q 144.67 158.40 146.81 160.94
  Q 185.38 206.59 245.25 213.25
  Q 247.75 213.53 247.75 211.01
  Q 247.75 207.42 247.75 203.84
  Q 247.75 199.66 248.20 196.69
  Q 251.93 171.89 271.81 158.87
  Q 280.10 153.44 290.12 151.16
  Q 316.71 145.12 339.04 163.21
  Q 341.02 164.81 343.40 165.03
  Q 344.95 165.17 347.90 164.32
  Q 359.78 160.90 370.60 154.93
  Q 372.88 153.67 374.11 153.57
  Q 376.54 153.38 376.78 155.92
  Q 376.90 157.17 376.21 158.98
  Q 371.78 170.59 363.16 179.58
  Q 362.81 179.94 363.31 179.84
  Z"
/>
</svg>
