<?xml version="1.0" encoding="UTF-8" standalone="no"?>
<!DOCTYPE svg PUBLIC "-//W3C//DTD SVG 1.1//EN" "http://www.w3.org/Graphics/SVG/1.1/DTD/svg11.dtd">
<svg xmlns="http://www.w3.org/2000/svg" version="1.1" viewBox="0 0 512 512">
<path fill="#000000" d="
  M 401.98 344.38
  Q 329.49 272.29 256.76 199.39
  A 1.07 1.07 45.2 0 0 255.24 199.38
  Q 181.44 273.19 107.69 346.94
  Q 103.67 350.95 98.48 351.72
  Q 93.49 352.47 88.75 350.25
  Q 82.77 347.44 80.75 340.75
  Q 78.71 333.99 81.90 328.38
  Q 83.09 326.29 89.71 319.67
  Q 165.05 244.33 240.39 168.99
  Q 246.79 162.59 250.42 161.11
  Q 256.36 158.70 262.30 161.43
  Q 265.54 162.91 271.06 168.44
  Q 348.75 246.12 426.44 323.81
  Q 430.72 328.09 431.64 333.32
  Q 432.56 338.56 430.11 343.43
  Q 427.36 348.91 421.06 351.06
  Q 415.23 353.06 410.08 350.84
  Q 407.24 349.61 401.98 344.38
  Z"
/>
</svg>
