<?xml version="1.0" encoding="UTF-8" standalone="no"?>
<!DOCTYPE svg PUBLIC "-//W3C//DTD SVG 1.1//EN" "http://www.w3.org/Graphics/SVG/1.1/DTD/svg11.dtd">
<svg xmlns="http://www.w3.org/2000/svg" version="1.1" viewBox="0 0 512 512">
<g stroke-width="2.00" fill="none" stroke-linecap="butt">
<path stroke="#95d48d" vector-effect="non-scaling-stroke" d="
  M 166.69 164.94
  Q 133.66 198.13 129.55 244.27
  Q 128.64 254.45 129.39 264.24
  Q 131.29 289.24 142.57 311.95
  A 2.04 2.00 38.3 0 1 142.74 313.28
  Q 136.10 345.37 129.55 377.51
  Q 128.86 380.91 131.08 382.75
  Q 132.50 383.94 134.70 383.74
  Q 136.31 383.59 138.56 383.06
  Q 168.29 376.05 198.35 368.92
  A 3.13 3.07 50.3 0 1 200.41 369.13
  Q 235.14 385.44 272.12 380.84
  Q 281.87 379.63 291.67 376.68
  Q 339.28 362.32 364.82 319.91
  Q 370.16 311.05 373.77 302.06
  Q 382.22 281.03 382.75 258.25
  Q 383.59 222.13 365.44 190.81
  Q 345.80 156.93 309.87 140.01
  Q 300.80 135.73 291.17 133.01
  Q 247.50 120.68 204.91 139.04
  Q 183.11 148.43 166.69 164.94"
/>
<path stroke="#95d48d" vector-effect="non-scaling-stroke" d="
  M 203.38 339.80
  Q 215.30 346.19 225.25 349.50
  Q 243.08 355.43 263.24 353.83
  Q 294.07 351.40 317.51 332.88
  Q 325.22 326.79 331.82 318.95
  Q 357.22 288.76 354.97 248.70
  Q 354.39 238.48 351.78 229.00
  Q 344.71 203.36 326.04 184.57
  Q 318.96 177.44 310.61 171.92
  Q 289.77 158.13 265.25 156.00
  Q 228.46 152.80 198.96 173.68
  Q 190.76 179.49 183.83 186.71
  Q 161.48 210.03 157.50 242.00
  Q 153.64 272.96 167.62 300.59
  Q 169.57 304.45 171.52 308.30
  A 1.45 1.42 37.6 0 1 171.65 309.24
  L 163.57 348.16
  A 0.51 0.51 88.9 0 0 164.19 348.76
  L 202.44 339.68
  A 1.34 1.32 51.8 0 1 203.38 339.80"
/>
<path stroke="#95d48d" vector-effect="non-scaling-stroke" d="
  M 219.72 196.12
  Q 214.03 191.83 208.31 196.34
  Q 204.56 199.31 200.19 204.19
  Q 190.45 215.06 192.11 229.52
  Q 193.39 240.61 198.47 250.54
  Q 206.39 266.02 218.54 278.45
  Q 227.50 287.61 239.44 296.81
  Q 253.91 307.97 270.18 313.57
  Q 284.24 318.42 298.93 315.87
  Q 304.46 314.91 309.31 311.31
  Q 317.45 305.28 322.26 296.90
  Q 324.41 293.16 324.01 290.09
  Q 323.28 284.34 316.50 282.25
  Q 306.14 279.06 295.67 276.25
  Q 295.63 276.23 293.84 275.68
  Q 290.45 274.64 287.44 275.73
  Q 285.48 276.45 282.01 279.91
  Q 280.11 281.81 278.15 283.64
  Q 275.77 285.85 273.70 286.39
  Q 270.54 287.21 267.59 285.94
  Q 267.07 285.71 262.53 282.92
  Q 241.41 269.92 226.72 249.83
  Q 222.64 244.25 226.68 238.68
  Q 229.68 234.56 230.69 233.44
  Q 235.26 228.35 232.50 222.03
  Q 227.64 210.94 222.24 199.24
  Q 221.38 197.37 219.72 196.12"
/>
</g>
<path fill="#2aa81a" d="
  M 249.81 0.00
  L 262.06 0.00
  Q 324.83 1.79 378.06 30.94
  Q 452.47 71.68 488.94 149.81
  Q 510.79 196.65 512.00 251.31
  L 512.00 260.56
  Q 510.14 334.73 470.30 395.90
  Q 464.86 404.26 458.71 412.20
  Q 417.73 465.12 356.69 491.44
  Q 311.55 510.89 260.44 512.00
  L 249.94 512.00
  Q 194.62 510.40 146.06 487.19
  Q 90.41 460.59 52.63 411.35
  Q 46.53 403.40 41.12 395.01
  Q 2.44 335.08 0.00 262.69
  L 0.00 250.19
  Q 1.41 199.19 21.64 152.91
  Q 25.57 143.90 30.45 134.95
  Q 70.06 62.20 143.81 25.81
  Q 192.64 1.72 249.81 0.00
  Z
  M 166.69 164.94
  Q 133.66 198.13 129.55 244.27
  Q 128.64 254.45 129.39 264.24
  Q 131.29 289.24 142.57 311.95
  A 2.04 2.00 38.3 0 1 142.74 313.28
  Q 136.10 345.37 129.55 377.51
  Q 128.86 380.91 131.08 382.75
  Q 132.50 383.94 134.70 383.74
  Q 136.31 383.59 138.56 383.06
  Q 168.29 376.05 198.35 368.92
  A 3.13 3.07 50.3 0 1 200.41 369.13
  Q 235.14 385.44 272.12 380.84
  Q 281.87 379.63 291.67 376.68
  Q 339.28 362.32 364.82 319.91
  Q 370.16 311.05 373.77 302.06
  Q 382.22 281.03 382.75 258.25
  Q 383.59 222.13 365.44 190.81
  Q 345.80 156.93 309.87 140.01
  Q 300.80 135.73 291.17 133.01
  Q 247.50 120.68 204.91 139.04
  Q 183.11 148.43 166.69 164.94
  Z"
/>
<path fill="#ffffff" d="
  M 166.69 164.94
  Q 183.11 148.43 204.91 139.04
  Q 247.50 120.68 291.17 133.01
  Q 300.80 135.73 309.87 140.01
  Q 345.80 156.93 365.44 190.81
  Q 383.59 222.13 382.75 258.25
  Q 382.22 281.03 373.77 302.06
  Q 370.16 311.05 364.82 319.91
  Q 339.28 362.32 291.67 376.68
  Q 281.87 379.63 272.12 380.84
  Q 235.14 385.44 200.41 369.13
  A 3.13 3.07 50.3 0 0 198.35 368.92
  Q 168.29 376.05 138.56 383.06
  Q 136.31 383.59 134.70 383.74
  Q 132.50 383.94 131.08 382.75
  Q 128.86 380.91 129.55 377.51
  Q 136.10 345.37 142.74 313.28
  A 2.04 2.00 38.3 0 0 142.57 311.95
  Q 131.29 289.24 129.39 264.24
  Q 128.64 254.45 129.55 244.27
  Q 133.66 198.13 166.69 164.94
  Z
  M 203.38 339.80
  Q 215.30 346.19 225.25 349.50
  Q 243.08 355.43 263.24 353.83
  Q 294.07 351.40 317.51 332.88
  Q 325.22 326.79 331.82 318.95
  Q 357.22 288.76 354.97 248.70
  Q 354.39 238.48 351.78 229.00
  Q 344.71 203.36 326.04 184.57
  Q 318.96 177.44 310.61 171.92
  Q 289.77 158.13 265.25 156.00
  Q 228.46 152.80 198.96 173.68
  Q 190.76 179.49 183.83 186.71
  Q 161.48 210.03 157.50 242.00
  Q 153.64 272.96 167.62 300.59
  Q 169.57 304.45 171.52 308.30
  A 1.45 1.42 37.6 0 1 171.65 309.24
  L 163.57 348.16
  A 0.51 0.51 88.9 0 0 164.19 348.76
  L 202.44 339.68
  A 1.34 1.32 51.8 0 1 203.38 339.80
  Z"
/>
<path fill="#2aa81a" d="
  M 202.44 339.68
  L 164.19 348.76
  A 0.51 0.51 88.9 0 1 163.57 348.16
  L 171.65 309.24
  A 1.45 1.42 37.6 0 0 171.52 308.30
  Q 169.57 304.45 167.62 300.59
  Q 153.64 272.96 157.50 242.00
  Q 161.48 210.03 183.83 186.71
  Q 190.76 179.49 198.96 173.68
  Q 228.46 152.80 265.25 156.00
  Q 289.77 158.13 310.61 171.92
  Q 318.96 177.44 326.04 184.57
  Q 344.71 203.36 351.78 229.00
  Q 354.39 238.48 354.97 248.70
  Q 357.22 288.76 331.82 318.95
  Q 325.22 326.79 317.51 332.88
  Q 294.07 351.40 263.24 353.83
  Q 243.08 355.43 225.25 349.50
  Q 215.30 346.19 203.38 339.80
  A 1.34 1.32 51.8 0 0 202.44 339.68
  Z
  M 219.72 196.12
  Q 214.03 191.83 208.31 196.34
  Q 204.56 199.31 200.19 204.19
  Q 190.45 215.06 192.11 229.52
  Q 193.39 240.61 198.47 250.54
  Q 206.39 266.02 218.54 278.45
  Q 227.50 287.61 239.44 296.81
  Q 253.91 307.97 270.18 313.57
  Q 284.24 318.42 298.93 315.87
  Q 304.46 314.91 309.31 311.31
  Q 317.45 305.28 322.26 296.90
  Q 324.41 293.16 324.01 290.09
  Q 323.28 284.34 316.50 282.25
  Q 306.14 279.06 295.67 276.25
  Q 295.63 276.23 293.84 275.68
  Q 290.45 274.64 287.44 275.73
  Q 285.48 276.45 282.01 279.91
  Q 280.11 281.81 278.15 283.64
  Q 275.77 285.85 273.70 286.39
  Q 270.54 287.21 267.59 285.94
  Q 267.07 285.71 262.53 282.92
  Q 241.41 269.92 226.72 249.83
  Q 222.64 244.25 226.68 238.68
  Q 229.68 234.56 230.69 233.44
  Q 235.26 228.35 232.50 222.03
  Q 227.64 210.94 222.24 199.24
  Q 221.38 197.37 219.72 196.12
  Z"
/>
<path fill="#ffffff" d="
  M 219.72 196.12
  Q 221.38 197.37 222.24 199.24
  Q 227.64 210.94 232.50 222.03
  Q 235.26 228.35 230.69 233.44
  Q 229.68 234.56 226.68 238.68
  Q 222.64 244.25 226.72 249.83
  Q 241.41 269.92 262.53 282.92
  Q 267.07 285.71 267.59 285.94
  Q 270.54 287.21 273.70 286.39
  Q 275.77 285.85 278.15 283.64
  Q 280.11 281.81 282.01 279.91
  Q 285.48 276.45 287.44 275.73
  Q 290.45 274.64 293.84 275.68
  Q 295.63 276.23 295.67 276.25
  Q 306.14 279.06 316.50 282.25
  Q 323.28 284.34 324.01 290.09
  Q 324.41 293.16 322.26 296.90
  Q 317.45 305.28 309.31 311.31
  Q 304.46 314.91 298.93 315.87
  Q 284.24 318.42 270.18 313.57
  Q 253.91 307.97 239.44 296.81
  Q 227.50 287.61 218.54 278.45
  Q 206.39 266.02 198.47 250.54
  Q 193.39 240.61 192.11 229.52
  Q 190.45 215.06 200.19 204.19
  Q 204.56 199.31 208.31 196.34
  Q 214.03 191.83 219.72 196.12
  Z"
/>
</svg>
